<?xml version="1.0" encoding="UTF-8" standalone="no"?>
<!DOCTYPE svg PUBLIC "-//W3C//DTD SVG 1.1//EN" "http://www.w3.org/Graphics/SVG/1.1/DTD/svg11.dtd">
<!-- Created with Vectornator (http://vectornator.io/) -->
<svg height="100%" stroke-miterlimit="10" style="fill-rule:nonzero;clip-rule:evenodd;stroke-linecap:round;stroke-linejoin:round;" version="1.1" viewBox="0 0 865.76 682.89" width="100%" xml:space="preserve" xmlns="http://www.w3.org/2000/svg" xmlns:xlink="http://www.w3.org/1999/xlink">
<defs/>
<g id="Untitled">
<g fill="#000000" opacity="1" stroke="none">
<path d="M435.669 335.175L437.345 340.284L439.097 335.175L440.251 335.175L437.884 341.45L436.759 341.45L434.444 335.175L435.669 335.175Z"/>
<path d="M441.528 335.509L441.528 334.7C442.29 334.626 442.821 334.502 443.122 334.328C443.423 334.154 443.648 333.743 443.796 333.095L444.628 333.095L444.628 341.45L443.503 341.45L443.503 335.509L441.528 335.509Z"/>
</g>
<path d="M795.06 366.19C683.92 573.4 512.52 596.13 512.52 596.13C484.915 601.032 457.074 604.5 429.11 606.52C427.34 606.65 425.56 606.77 423.79 606.87C246.06 618 144.61 556.9 88.28 496C30.16 433.21 5.42 345.9 24.34 262.44C56.71 119.73 194.45 73.71 194.45 73.71C224.25 61.91 256.45 57.28 287.52 56.8C370 55.49 444.37 83.29 444.37 83.29C466.297 90.8102 488.617 97.1328 511.23 102.23C557.29 112.39 579.16 110.23 579.16 110.23C660.09 97.09 715.34 110.12 715.34 110.12C794.07 126.79 817.45 185.82 822 237.86C825.87 282.3 816.14 326.89 795.06 366.19Z" fill="#00c16e" fill-rule="nonzero" opacity="1" stroke="none"/>
<path d="M795.06 366.19C695.83 551.19 548.56 589.19 518.14 595.19C514.49 595.91 512.52 596.19 512.52 596.19C505.26 597.457 498.107 598.623 491.06 599.69L490.29 599.8C468.957 602.987 448.563 605.247 429.11 606.58C427.34 606.71 425.56 606.83 423.79 606.92C411.263 607.64 399.103 608.057 387.31 608.17L386.52 608.17C375.48 608.25 364.763 608.04 354.37 607.54C306.83 605.29 265.88 597.35 230.63 585.72C206.728 577.92 183.722 567.602 162 554.94C161.68 554.78 161.37 554.59 161.05 554.39C158.39 552.84 155.75 551.23 153.18 549.62C129.268 534.7 107.443 516.669 88.28 496C30.16 433.21 5.42 345.9 24.34 262.44C56.71 119.73 194.45 73.71 194.45 73.71C224.25 61.91 256.45 57.28 287.53 56.8C370 55.49 444.37 83.29 444.37 83.29C466.297 90.8102 488.617 97.1328 511.23 102.23C557.29 112.39 579.16 110.23 579.16 110.23C660.09 97.09 715.35 110.12 715.35 110.12C794.07 126.74 817.45 185.77 821.99 237.81C825.87 282.3 816.14 326.89 795.06 366.19Z" fill="#ffffff" fill-rule="nonzero" opacity="0.7" stroke="none"/>
<path d="M729.06 178.33L716.77 350.07L714.77 378.71C714.219 386.46 707.769 392.464 700 392.46L433 392.46C429.307 392.462 425.779 390.925 423.265 388.22C420.751 385.514 419.477 381.883 419.75 378.2L421.9 350.07L434.57 184.24C435.187 176.149 441.886 169.871 450 169.78L717.59 167.07C720.608 167.03 723.517 168.197 725.67 170.311C727.824 172.425 729.044 175.312 729.06 178.33Z" fill="#00c16e" fill-rule="nonzero" opacity="1" stroke="none"/>
<path d="M729.06 178.33L716.77 350.07L714.77 378.71C714.219 386.46 707.769 392.464 700 392.46L433 392.46C429.307 392.462 425.779 390.925 423.265 388.22C420.751 385.514 419.477 381.883 419.75 378.2L421.9 350.07L434.57 184.24C435.187 176.149 441.886 169.871 450 169.78L717.59 167.07C720.608 167.03 723.517 168.197 725.67 170.311C727.824 172.425 729.044 175.312 729.06 178.33Z" fill="#000000" fill-rule="nonzero" opacity="0.4" stroke="none"/>
<path d="M423.82 582.78L441.2 582.78L441.2 582.78L441.2 596.77L441.2 596.77L423.82 596.77L423.82 596.77L423.82 582.78L423.82 582.78Z" fill="#e1e1e2" fill-rule="nonzero" opacity="1" stroke="none"/>
<path d="M433.15 582.78L441.2 582.78L441.2 582.78L441.2 596.77L441.2 596.77L433.15 596.77L433.15 596.77L433.15 582.78L433.15 582.78Z" fill="#9ea0a3" fill-rule="nonzero" opacity="1" stroke="none"/>
<path d="M481.05 582.78L498.43 582.78L498.43 582.78L498.43 596.77L498.43 596.77L481.05 596.77L481.05 596.77L481.05 582.78L481.05 582.78Z" fill="#e1e1e2" fill-rule="nonzero" opacity="1" stroke="none"/>
<path d="M490.37 582.78L498.42 582.78L498.42 582.78L498.42 596.77L498.42 596.77L490.37 596.77L490.37 596.77L490.37 582.78L490.37 582.78Z" fill="#9ea0a3" fill-rule="nonzero" opacity="1" stroke="none"/>
<path d="M660.77 582.36L678.15 582.36L678.15 582.36L678.15 596.35L678.15 596.35L660.77 596.35L660.77 596.35L660.77 582.36L660.77 582.36Z" fill="#e1e1e2" fill-rule="nonzero" opacity="1" stroke="none"/>
<path d="M670.1 582.36L678.15 582.36L678.15 582.36L678.15 596.35L678.15 596.35L670.1 596.35L670.1 596.35L670.1 582.36L670.1 582.36Z" fill="#9ea0a3" fill-rule="nonzero" opacity="1" stroke="none"/>
<path d="M712.06 582.36L729.44 582.36L729.44 582.36L729.44 596.35L729.44 596.35L712.06 596.35L712.06 596.35L712.06 582.36L712.06 582.36Z" fill="#e1e1e2" fill-rule="nonzero" opacity="1" stroke="none"/>
<path d="M721.39 582.36L729.44 582.36L729.44 582.36L729.44 596.35L729.44 596.35L721.39 596.35L721.39 596.35L721.39 582.36L721.39 582.36Z" fill="#9ea0a3" fill-rule="nonzero" opacity="1" stroke="none"/>
<path d="M411.95 467.91L653.14 467.91L653.14 467.91L653.14 584.48L653.14 584.48L411.95 584.48L411.95 584.48L411.95 467.91L411.95 467.91Z" fill="#3f4347" fill-rule="nonzero" opacity="1" stroke="none"/>
<path d="M653.14 467.49L736.22 467.49L736.22 467.49L736.22 584.27L736.22 584.27L653.14 584.27L653.14 584.27L653.14 467.49L653.14 467.49Z" fill="#2e3135" fill-rule="nonzero" opacity="1" stroke="none"/>
<path d="M598.57 392.46L529.79 392.46L542.95 442.89L611.82 443.12L598.57 392.46Z" fill="#00c16e" fill-rule="nonzero" opacity="1" stroke="none"/>
<path d="M598.57 392.46L529.79 392.46L542.95 442.89L555.759 442.933L611.82 443.12L598.57 392.46Z" fill="#ffffff" fill-rule="nonzero" opacity="0.2" stroke="none"/>
<path d="M658.23 453.71L744.7 453.71L744.7 453.71L744.7 471.09L744.7 471.09L658.23 471.09L658.23 471.09L658.23 453.71L658.23 453.71Z" fill="#9ea0a3" fill-rule="nonzero" opacity="1" stroke="none"/>
<path d="M571.33 481.9L559.47 495.89L506.48 495.89L495.04 481.9L421.7 481.9L421.7 573.03L643.39 573.03L643.39 481.9L571.33 481.9Z" fill="#000000" fill-rule="nonzero" opacity="0.2" stroke="none"/>
<path d="M508.18 440.36L574.3 440.36L574.3 440.36L574.3 453.92L574.3 453.92L508.18 453.92C504.436 453.92 501.4 450.884 501.4 447.14L501.4 447.14C501.4 443.396 504.436 440.36 508.18 440.36Z" fill="#00c16e" fill-rule="nonzero" opacity="1" stroke="none"/>
<path d="M508.18 440.36L574.3 440.36L574.3 440.36L574.3 453.92L574.3 453.92L508.18 453.92C504.436 453.92 501.4 450.884 501.4 447.14L501.4 447.14C501.4 443.396 504.436 440.36 508.18 440.36Z" fill="#000000" fill-rule="nonzero" opacity="0.2" stroke="none"/>
<path d="M598 392.46L611.14 440.36L574.59 440.36C570.834 440.36 567.79 443.404 567.79 447.16L567.79 447.16C567.796 450.912 570.838 453.95 574.59 453.95L619.44 453.95C621.816 453.95 624.057 452.845 625.503 450.96C626.949 449.075 627.436 446.625 626.82 444.33L612.88 392.46L598 392.46Z" fill="#00c16e" fill-rule="nonzero" opacity="1" stroke="none"/>
<path d="M718.06 178.33L707.741 322.53L705.77 350.07L703.77 378.71C703.219 386.46 696.769 392.464 689 392.46L422 392.46C418.307 392.462 414.779 390.925 412.265 388.22C409.751 385.514 408.477 381.883 408.75 378.2L410.9 350.07L423.57 184.24C424.187 176.149 430.886 169.871 439 169.78L706.59 167.07C709.608 167.03 712.517 168.197 714.67 170.311C716.824 172.425 718.044 175.312 718.06 178.33Z" fill="#00c16e" fill-rule="nonzero" opacity="1" stroke="none"/>
<path d="M705.77 350.07L703.77 378.71C703.219 386.46 696.769 392.464 689 392.46L422 392.46C418.307 392.462 414.779 390.925 412.265 388.22C409.751 385.514 408.477 381.883 408.75 378.2L410.9 350.07L705.77 350.07Z" fill="#000000" fill-rule="nonzero" opacity="0.2" stroke="none"/>
<path d="M549.72 371.48C549.72 367.62 552.85 364.49 556.71 364.49C560.57 364.49 563.7 367.62 563.7 371.48C563.7 375.34 560.57 378.47 556.71 378.47C552.85 378.47 549.72 375.34 549.72 371.48Z" fill="#ffffff" fill-rule="nonzero" opacity="1" stroke="none"/>
<path d="M426.37 335.66L691.29 335.66L702.74 179.67L439.51 179.67L426.37 335.66Z" fill="#ffffff" fill-rule="nonzero" opacity="1" stroke="none"/>
<path d="M694.19 112L693.12 127.15L679.94 313.49C679.646 317.62 676.21 320.82 672.07 320.82L452.3 320.82C450.097 320.821 447.994 319.902 446.499 318.284C445.004 316.665 444.254 314.496 444.43 312.3L459.35 127.11L460.65 110.98C460.921 107.641 463.71 105.069 467.06 105.07L687.78 105.07C689.573 105.067 691.286 105.814 692.503 107.131C693.721 108.447 694.332 110.213 694.19 112Z" fill="#ebebeb" fill-rule="nonzero" opacity="1" stroke="none"/>
<path d="M694.19 112L693.12 127.15L459.35 127.15L460.65 111.02C460.921 107.681 463.71 105.109 467.06 105.11L687.78 105.11C689.566 105.108 691.271 105.85 692.488 107.157C693.704 108.464 694.321 110.219 694.19 112Z" fill="#2f2e41" fill-rule="nonzero" opacity="1" stroke="none"/>
<path d="M475.33 112.27L565.19 112.27C567.416 112.27 569.22 114.074 569.22 116.3L569.22 116.29C569.22 118.516 567.416 120.32 565.19 120.32L475.33 120.32C473.104 120.32 471.3 118.516 471.3 116.29L471.3 116.3C471.3 114.074 473.104 112.27 475.33 112.27Z" fill="#ffffff" fill-rule="nonzero" opacity="0.4" stroke="none"/>
<path d="M638.31 116.51C638.31 114.638 639.828 113.12 641.7 113.12C643.572 113.12 645.09 114.638 645.09 116.51C645.09 118.382 643.572 119.9 641.7 119.9C639.828 119.9 638.31 118.382 638.31 116.51Z" fill="#ffffff" fill-rule="nonzero" opacity="0.4" stroke="none"/>
<path d="M654.84 116.51C654.84 114.638 656.358 113.12 658.23 113.12C660.102 113.12 661.62 114.638 661.62 116.51C661.62 118.382 660.102 119.9 658.23 119.9C656.358 119.9 654.84 118.382 654.84 116.51Z" fill="#ffffff" fill-rule="nonzero" opacity="0.4" stroke="none"/>
<path d="M670.95 116.51C670.95 114.638 672.468 113.12 674.34 113.12C676.212 113.12 677.73 114.638 677.73 116.51C677.73 118.382 676.212 119.9 674.34 119.9C672.468 119.9 670.95 118.382 670.95 116.51Z" fill="#ffffff" fill-rule="nonzero" opacity="0.4" stroke="none"/>
<path d="M669.46 144.28L645.92 144.28C645.863 144.28 645.808 144.257 645.768 144.215C645.728 144.173 645.707 144.117 645.71 144.06C645.71 143.944 645.804 143.85 645.92 143.85L669.46 143.85C669.548 143.831 669.638 143.867 669.689 143.942C669.739 144.016 669.739 144.114 669.689 144.188C669.638 144.263 669.548 144.299 669.46 144.28Z" fill="#cccccc" fill-rule="nonzero" opacity="1" stroke="none"/>
<path d="M617.64 144.28L593.1 144.28C593.012 144.299 592.922 144.263 592.871 144.188C592.821 144.114 592.821 144.016 592.871 143.942C592.922 143.867 593.012 143.831 593.1 143.85L617.64 143.85C617.741 143.872 617.813 143.961 617.813 144.065C617.813 144.169 617.741 144.258 617.64 144.28Z" fill="#cccccc" fill-rule="nonzero" opacity="1" stroke="none"/>
<path d="M565.65 144.28L540.65 144.28C540.593 144.28 540.538 144.257 540.498 144.215C540.458 144.173 540.437 144.117 540.44 144.06C540.44 143.944 540.534 143.85 540.65 143.85L565.65 143.85C565.751 143.872 565.823 143.961 565.823 144.065C565.823 144.169 565.751 144.258 565.65 144.28Z" fill="#cccccc" fill-rule="nonzero" opacity="1" stroke="none"/>
<path d="M512.83 144.28L488.25 144.28C488.149 144.258 488.077 144.169 488.077 144.065C488.077 143.961 488.149 143.872 488.25 143.85L512.83 143.85C512.931 143.872 513.003 143.961 513.003 144.065C513.003 144.169 512.931 144.258 512.83 144.28Z" fill="#cccccc" fill-rule="nonzero" opacity="1" stroke="none"/>
<path d="M652.51 302.81L629 302.81C628.899 302.788 628.827 302.699 628.827 302.595C628.827 302.491 628.899 302.402 629 302.38L652.55 302.38C652.607 302.38 652.662 302.403 652.702 302.445C652.742 302.487 652.763 302.543 652.76 302.6C652.761 302.663 652.734 302.724 652.685 302.765C652.637 302.805 652.572 302.822 652.51 302.81Z" fill="#cccccc" fill-rule="nonzero" opacity="1" stroke="none"/>
<path d="M600.68 302.81L576.14 302.81C576.024 302.81 575.93 302.716 575.93 302.6C575.927 302.543 575.948 302.487 575.988 302.445C576.028 302.403 576.083 302.38 576.14 302.38L600.68 302.38C600.737 302.38 600.792 302.403 600.832 302.445C600.872 302.487 600.893 302.543 600.89 302.6C600.89 302.716 600.796 302.81 600.68 302.81Z" fill="#cccccc" fill-rule="nonzero" opacity="1" stroke="none"/>
<path d="M548.69 302.81L523.69 302.81C523.602 302.829 523.512 302.793 523.461 302.718C523.411 302.644 523.411 302.546 523.461 302.472C523.512 302.397 523.602 302.361 523.69 302.38L548.69 302.38C548.747 302.38 548.802 302.403 548.842 302.445C548.882 302.487 548.903 302.543 548.9 302.6C548.9 302.716 548.806 302.81 548.69 302.81Z" fill="#cccccc" fill-rule="nonzero" opacity="1" stroke="none"/>
<path d="M495.87 302.81L471.3 302.81C471.184 302.81 471.09 302.716 471.09 302.6C471.087 302.543 471.108 302.487 471.148 302.445C471.188 302.403 471.243 302.38 471.3 302.38L495.87 302.38C495.927 302.38 495.982 302.403 496.022 302.445C496.062 302.487 496.083 302.543 496.08 302.6C496.08 302.716 495.986 302.81 495.87 302.81Z" fill="#cccccc" fill-rule="nonzero" opacity="1" stroke="none"/>
<path d="M668.4 160.38L634.27 160.38C634.154 160.38 634.06 160.286 634.06 160.17C634.06 160.054 634.154 159.96 634.27 159.96L668.4 159.96C668.516 159.96 668.61 160.054 668.61 160.17C668.61 160.286 668.516 160.38 668.4 160.38Z" fill="#cccccc" fill-rule="nonzero" opacity="1" stroke="none"/>
<path d="M616 160.38L581.9 160.38C581.784 160.38 581.69 160.286 581.69 160.17C581.69 160.054 581.784 159.96 581.9 159.96L616 159.96C616.116 159.96 616.21 160.054 616.21 160.17C616.21 160.286 616.116 160.38 616 160.38Z" fill="#cccccc" fill-rule="nonzero" opacity="1" stroke="none"/>
<path d="M564 160.38L528.21 160.38C528.094 160.38 528 160.286 528 160.17C528 160.054 528.094 159.96 528.21 159.96L564 159.96C564.116 159.96 564.21 160.054 564.21 160.17C564.21 160.286 564.116 160.38 564 160.38Z" fill="#cccccc" fill-rule="nonzero" opacity="1" stroke="none"/>
<path d="M512 160.38L477.23 160.38C477.114 160.38 477.02 160.286 477.02 160.17C477.02 160.054 477.114 159.96 477.23 159.96L512 159.96C512.116 159.96 512.21 160.054 512.21 160.17C512.21 160.286 512.116 160.38 512 160.38Z" fill="#cccccc" fill-rule="nonzero" opacity="1" stroke="none"/>
<path d="M656.54 287.12L622.4 287.12C622.284 287.12 622.19 287.026 622.19 286.91C622.195 286.796 622.286 286.705 622.4 286.7L656.54 286.7C656.654 286.705 656.745 286.796 656.75 286.91C656.75 287.026 656.656 287.12 656.54 287.12Z" fill="#cccccc" fill-rule="nonzero" opacity="1" stroke="none"/>
<path d="M604.1 287.12L570 287.12C569.884 287.12 569.79 287.026 569.79 286.91C569.79 286.794 569.884 286.7 570 286.7L604.1 286.7C604.218 286.7 604.315 286.792 604.32 286.91C604.32 286.967 604.297 287.022 604.255 287.062C604.213 287.102 604.157 287.123 604.1 287.12Z" fill="#cccccc" fill-rule="nonzero" opacity="1" stroke="none"/>
<path d="M552.11 287.12L516.35 287.12C516.293 287.123 516.237 287.102 516.195 287.062C516.153 287.022 516.13 286.967 516.13 286.91C516.135 286.792 516.232 286.7 516.35 286.7L552.11 286.7C552.228 286.7 552.325 286.792 552.33 286.91C552.33 286.967 552.307 287.022 552.265 287.062C552.223 287.102 552.167 287.123 552.11 287.12Z" fill="#cccccc" fill-rule="nonzero" opacity="1" stroke="none"/>
<path d="M500.13 287.12L465.36 287.12C465.244 287.12 465.15 287.026 465.15 286.91C465.155 286.796 465.246 286.705 465.36 286.7L500.13 286.7C500.244 286.705 500.335 286.796 500.34 286.91C500.34 287.026 500.246 287.12 500.13 287.12Z" fill="#cccccc" fill-rule="nonzero" opacity="1" stroke="none"/>
<path d="M509.87 192.6L475.11 192.6C475.009 192.578 474.937 192.489 474.937 192.385C474.937 192.281 475.009 192.192 475.11 192.17L509.87 192.17C509.958 192.151 510.048 192.187 510.099 192.262C510.149 192.336 510.149 192.434 510.099 192.508C510.048 192.583 509.958 192.619 509.87 192.6Z" fill="#cccccc" fill-rule="nonzero" opacity="1" stroke="none"/>
<path d="M499.91 224L470.91 224C470.809 223.978 470.737 223.889 470.737 223.785C470.737 223.681 470.809 223.592 470.91 223.57L499.91 223.57C500.026 223.57 500.12 223.664 500.12 223.78C500.123 223.837 500.102 223.893 500.062 223.935C500.022 223.977 499.967 224 499.91 224Z" fill="#cccccc" fill-rule="nonzero" opacity="1" stroke="none"/>
<path d="M502.88 254.91L467.88 254.91C467.762 254.91 467.665 254.818 467.66 254.7C467.66 254.643 467.683 254.588 467.725 254.548C467.767 254.508 467.823 254.487 467.88 254.49L502.88 254.49C502.996 254.49 503.09 254.584 503.09 254.7C503.085 254.814 502.994 254.905 502.88 254.91Z" fill="#cccccc" fill-rule="nonzero" opacity="1" stroke="none"/>
<path d="M659.29 255.33L624.29 255.33C624.174 255.33 624.08 255.236 624.08 255.12C624.08 255.004 624.174 254.91 624.29 254.91L659.29 254.91C659.406 254.91 659.5 255.004 659.5 255.12C659.5 255.236 659.406 255.33 659.29 255.33Z" fill="#cccccc" fill-rule="nonzero" opacity="1" stroke="none"/>
<path d="M499.49 271.86L476 271.86C475.884 271.86 475.79 271.766 475.79 271.65C475.79 271.534 475.884 271.44 476 271.44L499.53 271.44C499.644 271.445 499.735 271.536 499.74 271.65C499.741 271.713 499.714 271.774 499.665 271.815C499.617 271.855 499.552 271.872 499.49 271.86Z" fill="#cccccc" fill-rule="nonzero" opacity="1" stroke="none"/>
<path d="M656.75 271.44L633.22 271.44C633.104 271.44 633.01 271.346 633.01 271.23C633.01 271.114 633.104 271.02 633.22 271.02L656.75 271.02C656.866 271.02 656.96 271.114 656.96 271.23C656.96 271.346 656.866 271.44 656.75 271.44Z" fill="#cccccc" fill-rule="nonzero" opacity="1" stroke="none"/>
<path d="M660.14 224L631.14 224C631.039 223.978 630.967 223.889 630.967 223.785C630.967 223.681 631.039 223.592 631.14 223.57L660.14 223.57C660.256 223.57 660.35 223.664 660.35 223.78C660.353 223.837 660.332 223.893 660.292 223.935C660.252 223.977 660.197 224 660.14 224Z" fill="#cccccc" fill-rule="nonzero" opacity="1" stroke="none"/>
<path d="M664.59 192.6L629.83 192.6C629.714 192.6 629.62 192.506 629.62 192.39C629.617 192.333 629.638 192.277 629.678 192.235C629.718 192.193 629.773 192.17 629.83 192.17L664.59 192.17C664.647 192.17 664.702 192.193 664.742 192.235C664.782 192.277 664.803 192.333 664.8 192.39C664.8 192.506 664.706 192.6 664.59 192.6Z" fill="#cccccc" fill-rule="nonzero" opacity="1" stroke="none"/>
<path d="M663.32 208.28L638.94 208.28C638.824 208.28 638.73 208.186 638.73 208.07C638.73 207.954 638.824 207.86 638.94 207.86L663.32 207.86C663.436 207.86 663.53 207.954 663.53 208.07C663.53 208.186 663.436 208.28 663.32 208.28Z" fill="#cccccc" fill-rule="nonzero" opacity="1" stroke="none"/>
<path d="M506.48 207.86L482.11 207.86C482.022 207.879 481.932 207.843 481.881 207.768C481.831 207.694 481.831 207.596 481.881 207.522C481.932 207.447 482.022 207.411 482.11 207.43L506.48 207.43C506.568 207.411 506.658 207.447 506.709 207.522C506.759 207.596 506.759 207.694 506.709 207.768C506.658 207.843 506.568 207.879 506.48 207.86Z" fill="#cccccc" fill-rule="nonzero" opacity="1" stroke="none"/>
<path d="M503.52 239.65L479.14 239.65C479.024 239.65 478.93 239.556 478.93 239.44C478.93 239.324 479.024 239.23 479.14 239.23L503.52 239.23C503.636 239.23 503.73 239.324 503.73 239.44C503.725 239.554 503.634 239.645 503.52 239.65Z" fill="#cccccc" fill-rule="nonzero" opacity="1" stroke="none"/>
<path d="M660.78 240.07L636.4 240.07C636.284 240.07 636.19 239.976 636.19 239.86C636.19 239.744 636.284 239.65 636.4 239.65L660.78 239.65C660.896 239.65 660.99 239.744 660.99 239.86C660.99 239.976 660.896 240.07 660.78 240.07Z" fill="#cccccc" fill-rule="nonzero" opacity="1" stroke="none"/>
<path d="M510.29 176.49L485.71 176.49C485.594 176.49 485.5 176.396 485.5 176.28C485.5 176.164 485.594 176.07 485.71 176.07L510.29 176.07C510.406 176.07 510.5 176.164 510.5 176.28C510.5 176.396 510.406 176.49 510.29 176.49Z" fill="#cccccc" fill-rule="nonzero" opacity="1" stroke="none"/>
<path d="M624.32 224.6L592.11 273.77L534.88 273.77L533.31 270.73L508.6 222.91L541.24 173.31L594.48 173.7L598.89 173.74L624.32 224.6Z" fill="#00c16e" fill-rule="nonzero" opacity="1" stroke="none"/>
<path d="M624.32 224.6L592.11 273.77L534.88 273.77L533.31 270.73L584.9 270.73L616.27 220.79L594.48 173.7L598.89 173.74L624.32 224.6Z" fill="#000000" fill-rule="nonzero" opacity="0.2" stroke="none"/>
<path d="M847.66 213.56L846.72 224.56L841.32 288C840.853 293.385 836.346 297.519 830.94 297.52L696.71 297.52C694.558 297.52 692.506 296.616 691.054 295.027C689.603 293.439 688.886 291.313 689.08 289.17L694.92 224.61L695.75 215.45C696.096 211.501 699.395 208.466 703.36 208.45L842.62 208.05C844.041 208.047 845.398 208.643 846.357 209.692C847.317 210.74 847.789 212.145 847.66 213.56Z" fill="#ebebeb" fill-rule="nonzero" opacity="1" stroke="none"/>
<path d="M847.66 213.56L846.72 224.56L694.92 224.56L695.75 215.4C696.096 211.451 699.395 208.416 703.36 208.4L842.62 208C844.051 207.996 845.416 208.598 846.377 209.658C847.338 210.718 847.805 212.136 847.66 213.56Z" fill="#2f2e41" fill-rule="nonzero" opacity="1" stroke="none"/>
<path d="M772.25 212.73L834.57 212.73C836.674 212.73 838.38 214.436 838.38 216.54L838.38 216.55C838.38 218.654 836.674 220.36 834.57 220.36L772.25 220.36C770.146 220.36 768.44 218.654 768.44 216.55L768.44 216.54C768.44 214.436 770.146 212.73 772.25 212.73Z" fill="#ffffff" fill-rule="nonzero" opacity="0.4" stroke="none"/>
<path d="M704.01 216.12C704.01 214.248 705.528 212.73 707.4 212.73C709.272 212.73 710.79 214.248 710.79 216.12C710.79 217.992 709.272 219.51 707.4 219.51C705.528 219.51 704.01 217.992 704.01 216.12Z" fill="#ffffff" fill-rule="nonzero" opacity="0.4" stroke="none"/>
<path d="M717.15 216.55C717.15 214.678 718.668 213.16 720.54 213.16C722.412 213.16 723.93 214.678 723.93 216.55C723.93 218.422 722.412 219.94 720.54 219.94C718.668 219.94 717.15 218.422 717.15 216.55Z" fill="#ffffff" fill-rule="nonzero" opacity="0.4" stroke="none"/>
<path d="M728.6 216.55C728.6 214.678 730.118 213.16 731.99 213.16C733.862 213.16 735.38 214.678 735.38 216.55C735.38 218.422 733.862 219.94 731.99 219.94C730.118 219.94 728.6 218.422 728.6 216.55Z" fill="#ffffff" fill-rule="nonzero" opacity="0.4" stroke="none"/>
<path d="M744.05 273.77L701.23 273.77C700.787 273.77 700.366 273.581 700.072 273.251C699.778 272.92 699.639 272.48 699.69 272.04C699.723 271.76 699.83 271.495 700 271.27L723.83 240.37L723.89 240.3C724.214 239.928 724.696 239.733 725.188 239.775C725.68 239.816 726.122 240.089 726.38 240.51L745.38 271.41C745.674 271.89 745.685 272.491 745.409 272.981C745.133 273.471 744.613 273.773 744.05 273.77Z" fill="#00c16e" fill-rule="nonzero" opacity="1" stroke="none"/>
<path d="M744.05 273.77L701.23 273.77C700.787 273.77 700.366 273.581 700.072 273.251C699.778 272.92 699.639 272.48 699.69 272.04L739.6 271.27C740.046 271.263 740.455 271.019 740.675 270.631C740.895 270.242 740.893 269.767 740.67 269.38C740.67 269.38 741.061 270.058 736.866 262.788C732.671 255.518 723.89 240.3 723.89 240.3C724.214 239.928 724.696 239.733 725.188 239.775C725.68 239.816 726.122 240.089 726.38 240.51L745.38 271.41C745.674 271.89 745.685 272.491 745.409 272.981C745.133 273.471 744.613 273.773 744.05 273.77Z" fill="#000000" fill-rule="nonzero" opacity="0.2" stroke="none"/>
<path d="M474.26 165.59L471.83 189.33C471.528 192.273 469.048 194.51 466.09 194.51L331.59 194.51C330.456 194.516 329.373 194.04 328.61 193.201C327.847 192.362 327.477 191.238 327.59 190.11L327.59 189.85L330.17 163.77C330.376 161.718 332.108 160.16 334.17 160.17L468.84 160.17C471.833 160.17 474.26 162.597 474.26 165.59Z" fill="#2f2e41" fill-rule="nonzero" opacity="1" stroke="none"/>
<path d="M474.26 165.59L471.83 189.33C471.528 192.273 469.048 194.51 466.09 194.51L331.6 194.51C330.466 194.516 329.383 194.04 328.62 193.201C327.857 192.362 327.487 191.238 327.6 190.11L327.6 189.85L463.86 190.27C464.213 190.271 464.509 190.002 464.54 189.65L467.12 160.17L468.81 160.17C470.253 160.162 471.639 160.73 472.662 161.747C473.685 162.764 474.26 164.147 474.26 165.59Z" fill="#000000" fill-rule="nonzero" opacity="0.2" stroke="none"/>
<path d="M354.93 174.09L354.93 174.09C354.872 174.088 354.818 174.061 354.781 174.018C354.743 173.974 354.724 173.917 354.73 173.86L354.92 170.49C354.788 168.482 353.184 166.884 351.176 166.76C349.167 166.636 347.379 168.023 347 170L346.81 173.79C346.8 173.905 346.706 173.995 346.59 174C346.532 173.998 346.478 173.971 346.441 173.928C346.403 173.884 346.384 173.827 346.39 173.77L346.58 169.98C346.8 167.633 348.838 165.88 351.191 166.015C353.545 166.15 355.37 168.123 355.32 170.48L355.12 173.85C355.128 173.907 355.113 173.966 355.077 174.011C355.041 174.057 354.988 174.085 354.93 174.09Z" fill="#ffffff" fill-rule="nonzero" opacity="1" stroke="none"/>
<path d="M342.86 173.74L342.01 184.74L357.27 184.74L358.12 173.74L342.86 173.74ZM350.68 179.62L350.61 181.38L349.76 181.38L349.83 179.61C349.212 179.402 348.805 178.812 348.83 178.16C348.853 177.39 349.459 176.765 350.228 176.717C350.996 176.67 351.674 177.216 351.792 177.977C351.909 178.738 351.427 179.464 350.68 179.65L350.68 179.62Z" fill="#ffffff" fill-rule="nonzero" opacity="1" stroke="none"/>
<path d="M403.26 453.71L658.44 453.71L658.44 453.71L658.44 471.09L658.44 471.09L403.26 471.09L403.26 471.09L403.26 453.71L403.26 453.71Z" fill="#e1e1e2" fill-rule="nonzero" opacity="1" stroke="none"/>
<path d="M532.7 214.19L532.7 209.79L542.79 195.36L548.89 195.36L548.89 209.47L551.5 209.47L551.5 214.19L548.89 214.19L548.89 218.34L543.43 218.34L543.43 214.19L532.7 214.19ZM543.81 201.36L538.45 209.47L543.81 209.47L543.81 201.36Z" fill="#ffffff" fill-rule="nonzero" opacity="1" stroke="none"/>
<path d="M556.31 197.72C557.72 195.61 560.01 194.56 563.16 194.56C566.31 194.56 568.59 195.61 570 197.72C571.41 199.83 572.13 202.72 572.13 206.37C572.13 210.02 571.42 212.98 570 215.09C568.58 217.2 566.31 218.25 563.16 218.25C560.01 218.25 557.72 217.2 556.31 215.09C554.9 212.98 554.19 210.09 554.19 206.37C554.19 202.65 554.89 199.83 556.31 197.72ZM566.06 201.41C565.484 200.342 564.369 199.676 563.155 199.676C561.941 199.676 560.826 200.342 560.25 201.41C559.709 203.019 559.472 204.714 559.55 206.41C559.53 207.612 559.613 208.813 559.8 210C559.913 210.845 560.259 211.641 560.8 212.3C562.121 213.471 564.109 213.471 565.43 212.3C565.971 211.641 566.317 210.845 566.43 210C566.617 208.813 566.7 207.612 566.68 206.41C566.784 204.719 566.574 203.024 566.06 201.41Z" fill="#ffffff" fill-rule="nonzero" opacity="1" stroke="none"/>
<path d="M575.13 214.19L575.13 209.79L585.22 195.36L591.31 195.36L591.31 209.47L593.93 209.47L593.93 214.19L591.31 214.19L591.31 218.34L585.85 218.34L585.85 214.19L575.13 214.19ZM586.24 201.36L580.87 209.47L586.24 209.47L586.24 201.36Z" fill="#ffffff" fill-rule="nonzero" opacity="1" stroke="none"/>
<path d="M527.71 219.76L527.71 230.13L537.09 230.13L537.09 230.71L527.71 230.71L527.71 241.08L538.05 241.08L538.05 241.66L527.05 241.66L527.05 219.18L538.05 219.18L538.05 219.76L527.71 219.76Z" fill="#ffffff" fill-rule="nonzero" opacity="1" stroke="none"/>
<path d="M551.71 224L551.71 224.7L551.43 224.7C549.75 224.655 548.11 225.216 546.81 226.28C545.55 227.33 544.91 229.03 544.91 231.37L544.91 241.62L544.27 241.62L544.27 224.42L544.91 224.42L544.91 228.6C545.59 225.533 547.857 224 551.71 224Z" fill="#ffffff" fill-rule="nonzero" opacity="1" stroke="none"/>
<path d="M564.42 224L564.42 224.7L564.13 224.7C562.453 224.65 560.814 225.212 559.52 226.28C558.253 227.333 557.62 229.03 557.62 231.37L557.62 241.62L557 241.62L557 224.42L557.64 224.42L557.64 228.6C558.307 225.533 560.567 224 564.42 224Z" fill="#ffffff" fill-rule="nonzero" opacity="1" stroke="none"/>
<path d="M573 240.81C571.727 240.099 570.686 239.037 570 237.75C568.533 234.781 568.533 231.299 570 228.33C570.688 227.043 571.729 225.978 573 225.26C575.699 223.846 578.921 223.846 581.62 225.26C582.89 225.979 583.931 227.043 584.62 228.33C586.06 231.305 586.06 234.775 584.62 237.75C583.933 239.036 582.892 240.098 581.62 240.81C578.924 242.236 575.696 242.236 573 240.81ZM581.14 240.4C582.329 239.768 583.314 238.811 583.98 237.64C585.419 234.742 585.419 231.338 583.98 228.44C583.314 227.269 582.329 226.312 581.14 225.68C578.724 224.467 575.876 224.467 573.46 225.68C572.257 226.31 571.264 227.276 570.6 228.46C569.16 231.344 569.16 234.736 570.6 237.62C571.267 238.802 572.26 239.767 573.46 240.4C575.876 241.613 578.724 241.613 581.14 240.4Z" fill="#ffffff" fill-rule="nonzero" opacity="1" stroke="none"/>
<path d="M599.7 224L599.7 224.7L599.41 224.7C597.73 224.655 596.09 225.216 594.79 226.28C593.53 227.333 592.9 229.03 592.9 231.37L592.9 241.62L592.26 241.62L592.26 224.42L592.9 224.42L592.9 228.6C593.58 225.56 595.84 224 599.7 224Z" fill="#ffffff" fill-rule="nonzero" opacity="1" stroke="none"/>
<path d="M756 245.25L756 256.49L766.2 256.49L766.2 257.11L756 257.11L756 268.36L767.21 268.36L767.21 269L755.33 269L755.33 244.62L767.24 244.62L767.24 245.25L756 245.25Z" fill="#00c16e" fill-rule="nonzero" opacity="1" stroke="none"/>
<path d="M780 249.88L780 250.64L779.69 250.64C777.87 250.589 776.094 251.2 774.69 252.36C773.31 253.5 772.63 255.36 772.63 257.87L772.63 269L771.94 269L771.94 250.3L772.63 250.3L772.63 254.83C773.35 251.53 775.807 249.88 780 249.88Z" fill="#00c16e" fill-rule="nonzero" opacity="1" stroke="none"/>
<path d="M791.66 249.88L791.66 250.64L791.35 250.64C789.53 250.589 787.754 251.2 786.35 252.36C784.983 253.5 784.297 255.337 784.29 257.87L784.29 269L783.6 269L783.6 250.3L784.29 250.3L784.29 254.83C785.03 251.53 787.487 249.88 791.66 249.88Z" fill="#00c16e" fill-rule="nonzero" opacity="1" stroke="none"/>
<path d="M798.89 268.06C797.507 267.286 796.373 266.134 795.62 264.74C794.033 261.525 794.033 257.755 795.62 254.54C796.373 253.143 797.507 251.988 798.89 251.21C801.815 249.677 805.305 249.677 808.23 251.21C809.615 251.983 810.747 253.139 811.49 254.54C813.05 257.761 813.05 261.519 811.49 264.74C810.746 266.138 809.614 267.291 808.23 268.06C805.308 269.603 801.812 269.603 798.89 268.06ZM807.71 267.61C809.007 266.932 810.078 265.889 810.79 264.61C812.377 261.465 812.377 257.755 810.79 254.61C810.074 253.334 809.004 252.292 807.71 251.61C806.428 250.946 805.004 250.603 803.56 250.61C802.11 250.606 800.68 250.949 799.39 251.61C798.091 252.29 797.018 253.332 796.3 254.61C794.721 257.732 794.721 261.418 796.3 264.54C797.012 265.822 798.087 266.866 799.39 267.54C800.679 268.204 802.11 268.548 803.56 268.54C804.998 268.573 806.423 268.253 807.71 267.61Z" fill="#00c16e" fill-rule="nonzero" opacity="1" stroke="none"/>
<path d="M825.74 249.88L825.74 250.64L825.43 250.64C823.61 250.589 821.834 251.2 820.43 252.36C819.063 253.5 818.377 255.337 818.37 257.87L818.37 269L817.68 269L817.68 250.3L818.37 250.3L818.37 254.83C819.11 251.53 821.567 249.88 825.74 249.88Z" fill="#00c16e" fill-rule="nonzero" opacity="1" stroke="none"/>
<path d="M829.7 268.79C829.35 268.408 829.35 267.822 829.7 267.44C830.057 267.095 830.623 267.095 830.98 267.44C831.33 267.822 831.33 268.408 830.98 268.79C830.623 269.135 830.057 269.135 829.7 268.79ZM830.7 244.62L830.59 263.55L830 263.55L829.9 244.62L830.7 244.62Z" fill="#00c16e" fill-rule="nonzero" opacity="1" stroke="none"/>
<path d="M721.78 267.94C721.372 267.546 721.15 266.997 721.17 266.43C721.156 265.861 721.376 265.311 721.78 264.91C722.184 264.51 722.732 264.29 723.3 264.3C723.857 264.288 724.393 264.509 724.78 264.91C725.187 265.31 725.412 265.86 725.4 266.43C725.417 266.999 725.192 267.548 724.78 267.94C724.395 268.344 723.858 268.569 723.3 268.56C722.73 268.572 722.18 268.347 721.78 267.94ZM725 248.1L724.62 262.23L721.85 262.23L721.47 248.1L725 248.1Z" fill="#ffffff" fill-rule="nonzero" opacity="1" stroke="none"/>
<path d="M376 176.77C376.475 177.428 376.662 178.251 376.52 179.05C376.384 180.1 375.837 181.053 375 181.7C373.984 182.419 372.753 182.772 371.51 182.7L367.44 182.7L369.39 168.93L373.46 168.93C374.544 168.825 375.625 169.16 376.46 169.86C377.066 170.517 377.319 171.425 377.14 172.3C377.051 173.131 376.676 173.905 376.08 174.49C375.528 175.025 374.834 175.389 374.08 175.54C374.857 175.681 375.547 176.123 376 176.77ZM368.88 175.36L372.67 175.36C373.676 175.419 374.673 175.137 375.5 174.56C376.201 174.012 376.651 173.204 376.75 172.32C376.918 171.539 376.685 170.725 376.13 170.15C375.361 169.533 374.381 169.243 373.4 169.34L369.73 169.34L368.88 175.36ZM374.7 181.45C375.489 180.885 376.004 180.014 376.12 179.05C376.3 178.17 376.008 177.261 375.35 176.65C374.528 176.002 373.494 175.684 372.45 175.76L368.83 175.76L367.9 182.33L371.57 182.33C372.695 182.392 373.808 182.083 374.74 181.45L374.7 181.45Z" fill="#ffffff" fill-rule="nonzero" opacity="1" stroke="none"/>
<path d="M383.63 168.26L381.58 182.73L381.18 182.73L383.23 168.26L383.63 168.26Z" fill="#ffffff" fill-rule="nonzero" opacity="1" stroke="none"/>
<path d="M389.59 182.23C388.857 181.794 388.282 181.135 387.95 180.35C387.596 179.43 387.499 178.431 387.67 177.46C387.793 176.424 388.171 175.434 388.77 174.58C389.326 173.783 390.072 173.137 390.94 172.7C391.813 172.267 392.775 172.044 393.75 172.05C394.669 172.038 395.576 172.265 396.38 172.71C397.112 173.144 397.684 173.804 398.01 174.59C398.361 175.511 398.454 176.51 398.28 177.48C398.156 178.514 397.782 179.503 397.19 180.36C396.64 181.159 395.897 181.806 395.03 182.24C394.157 182.673 393.195 182.896 392.22 182.89C391.301 182.902 390.394 182.675 389.59 182.23ZM394.77 181.98C395.566 181.591 396.253 181.01 396.77 180.29C397.363 179.46 397.735 178.493 397.85 177.48C398.027 176.532 397.927 175.552 397.56 174.66C397.24 173.948 396.691 173.364 396 173C395.281 172.616 394.475 172.423 393.66 172.44C392.793 172.432 391.935 172.62 391.15 172.99C390.354 173.384 389.667 173.968 389.15 174.69C388.562 175.519 388.191 176.481 388.07 177.49C387.895 178.435 387.995 179.411 388.36 180.3C388.676 181.025 389.225 181.623 389.92 182C390.643 182.384 391.452 182.577 392.27 182.56C393.135 182.564 393.99 182.373 394.77 182L394.77 181.98Z" fill="#ffffff" fill-rule="nonzero" opacity="1" stroke="none"/>
<path d="M404.2 174.59C404.741 173.797 405.474 173.154 406.33 172.72C407.196 172.288 408.152 172.069 409.12 172.08C410.29 172.001 411.447 172.357 412.37 173.08C413.148 173.757 413.593 174.739 413.59 175.77L413.19 175.77C413.197 174.814 412.771 173.905 412.03 173.3C411.166 172.658 410.104 172.34 409.03 172.4C408.173 172.395 407.325 172.583 406.55 172.95C405.751 173.335 405.063 173.916 404.55 174.64C403.971 175.479 403.607 176.447 403.49 177.46C403.308 178.403 403.402 179.379 403.76 180.27C404.061 180.992 404.596 181.591 405.28 181.97C405.997 182.35 406.799 182.543 407.61 182.53C408.745 182.554 409.863 182.241 410.82 181.63C411.72 181.065 412.382 180.19 412.68 179.17L413.08 179.17C412.743 180.27 412.036 181.22 411.08 181.86C410.032 182.553 408.795 182.902 407.54 182.86C406.627 182.883 405.725 182.659 404.93 182.21C404.202 181.779 403.639 181.117 403.33 180.33C402.989 179.407 402.899 178.409 403.07 177.44C403.22 176.415 403.607 175.439 404.2 174.59Z" fill="#ffffff" fill-rule="nonzero" opacity="1" stroke="none"/>
<path d="M423.36 182.8L419.05 177.8L418.35 182.75L417.94 182.75L420 168.32L420.4 168.32L419.17 177.06L424.76 172.24L425.35 172.24L419.25 177.47L423.94 182.8L423.36 182.8Z" fill="#ffffff" fill-rule="nonzero" opacity="1" stroke="none"/>
<path d="M436.29 181.7C437.19 181.135 437.852 180.26 438.15 179.24L438.55 179.24C438.213 180.34 437.506 181.29 436.55 181.93C435.504 182.626 434.266 182.976 433.01 182.93C432.097 182.952 431.196 182.727 430.4 182.28C429.672 181.851 429.112 181.189 428.81 180.4C428.46 179.479 428.367 178.48 428.54 177.51C428.672 176.473 429.042 175.481 429.62 174.61C430.161 173.817 430.894 173.174 431.75 172.74C432.617 172.31 433.573 172.091 434.54 172.1C435.462 172.064 436.375 172.293 437.17 172.76C437.824 173.154 438.335 173.746 438.63 174.45C438.92 175.141 439.013 175.899 438.9 176.64C438.83 177.11 438.77 177.46 438.73 177.7L428.92 177.7C428.758 178.618 428.865 179.562 429.23 180.42C429.549 181.118 430.086 181.694 430.76 182.06C431.47 182.428 432.26 182.614 433.06 182.6C434.202 182.628 435.327 182.315 436.29 181.7ZM432.06 173C431.267 173.366 430.579 173.927 430.06 174.63C429.473 175.429 429.101 176.366 428.98 177.35L438.45 177.35C438.682 176.45 438.63 175.499 438.3 174.63C438.005 173.929 437.474 173.352 436.8 173C436.093 172.633 435.306 172.448 434.51 172.46C433.664 172.462 432.829 172.646 432.06 173Z" fill="#ffffff" fill-rule="nonzero" opacity="1" stroke="none"/>
<path d="M444.7 174.67C445.24 173.87 445.977 173.222 446.84 172.79C447.727 172.355 448.702 172.132 449.69 172.14C450.776 172.115 451.836 172.469 452.69 173.14C453.446 173.741 453.946 174.605 454.09 175.56L455.09 168.43L455.47 168.43L453.47 182.9L453.09 182.9L453.54 179.66C453.101 180.657 452.377 181.502 451.46 182.09C450.477 182.73 449.323 183.058 448.15 183.03C447.217 183.055 446.294 182.827 445.48 182.37C444.744 181.948 444.179 181.283 443.88 180.49C443.538 179.57 443.448 178.576 443.62 177.61C443.736 176.557 444.106 175.548 444.7 174.67ZM453.58 174.92C453.289 174.176 452.762 173.547 452.08 173.13C451.342 172.693 450.497 172.472 449.64 172.49C448.714 172.474 447.797 172.683 446.97 173.1C446.161 173.493 445.471 174.094 444.97 174.84C444.436 175.656 444.095 176.583 443.97 177.55C443.811 178.457 443.887 179.39 444.19 180.26C444.462 180.994 444.977 181.611 445.65 182.01C446.411 182.44 447.276 182.652 448.15 182.62C449.062 182.626 449.961 182.41 450.77 181.99C451.573 181.57 452.26 180.959 452.77 180.21C453.309 179.422 453.651 178.517 453.77 177.57C453.947 176.686 453.881 175.77 453.58 174.92Z" fill="#ffffff" fill-rule="nonzero" opacity="1" stroke="none"/>
<path d="M141.17 595.11L113.55 595.11L113.55 449.52L109.52 449.52L109.52 595.11L83.05 595.11L79.02 595.11L79.02 598.56L79.02 607.19L83.05 607.19L83.05 598.56L141.17 598.56L141.17 607.19L145.2 607.19L145.2 598.56L145.2 595.11L141.17 595.11Z" fill="#2e3135" fill-rule="nonzero" opacity="1" stroke="none"/>
<path d="M133.69 614.39C133.69 609.149 137.939 604.9 143.18 604.9C148.421 604.9 152.67 609.149 152.67 614.39C152.67 619.631 148.421 623.88 143.18 623.88C137.939 623.88 133.69 619.631 133.69 614.39Z" fill="#3f4347" fill-rule="nonzero" opacity="1" stroke="none"/>
<path d="M136.56 614.39C136.56 610.734 139.524 607.77 143.18 607.77C146.836 607.77 149.8 610.734 149.8 614.39C149.8 618.046 146.836 621.01 143.18 621.01C139.524 621.01 136.56 618.046 136.56 614.39Z" fill="#ffffff" fill-rule="nonzero" opacity="1" stroke="none"/>
<path d="M245.9 558.28L258 611.8C258 611.8 263.18 614.1 277.57 614.67C277.57 614.67 274.12 607.19 279.29 603.74L268.94 554.83L245.9 558.28Z" fill="#f9b499" fill-rule="nonzero" opacity="1" stroke="none"/>
<path d="M258.93 622.64L258 611.8C264.407 613.429 270.965 614.39 277.57 614.67C277.57 614.67 273.57 607.19 279.29 603.74C279.29 603.74 282.82 600.22 288.29 606.66C290.463 609.175 293.178 611.165 296.23 612.48L321.77 623.74C322.069 623.862 322.239 624.181 322.172 624.497C322.106 624.814 321.823 625.038 321.5 625.03L261.5 625.03C260.154 625.019 259.039 623.982 258.93 622.64Z" fill="#00c16e" fill-rule="nonzero" opacity="1" stroke="none"/>
<path d="M152.68 559.43L146.92 614.67L164.76 614.67C164.76 614.67 165.34 605.47 171.67 604.32L176.85 548.5L152.68 559.43Z" fill="#f9b499" fill-rule="nonzero" opacity="1" stroke="none"/>
<path d="M205.93 623.71C199.14 620.71 183.26 613.13 177.93 605.16C176.553 603.044 173.738 602.414 171.59 603.74C168.26 605.83 164.44 609.4 164.77 614.67L146.92 614.67L144.28 623.49C144.067 624.118 144.179 624.812 144.58 625.341C144.98 625.869 145.617 626.165 146.28 626.13L205.65 625.13C206.042 625.207 206.423 624.952 206.5 624.56C206.577 624.168 206.322 623.787 205.93 623.71Z" fill="#00c16e" fill-rule="nonzero" opacity="1" stroke="none"/>
<path d="M71.54 614.39C71.54 609.149 75.7888 604.9 81.03 604.9C86.2712 604.9 90.52 609.149 90.52 614.39C90.52 619.631 86.2712 623.88 81.03 623.88C75.7888 623.88 71.54 619.631 71.54 614.39Z" fill="#3f4347" fill-rule="nonzero" opacity="1" stroke="none"/>
<path d="M74.41 614.39C74.41 610.734 77.3739 607.77 81.03 607.77C84.6861 607.77 87.65 610.734 87.65 614.39C87.65 618.046 84.6861 621.01 81.03 621.01C77.3739 621.01 74.41 618.046 74.41 614.39Z" fill="#ffffff" fill-rule="nonzero" opacity="1" stroke="none"/>
<path d="M73.55 427.08L153.25 427.08L153.25 427.08L153.25 451.82L153.25 451.82L73.55 451.82C66.7182 451.82 61.18 446.282 61.18 439.45L61.18 439.45C61.18 432.618 66.7182 427.08 73.55 427.08Z" fill="#3f4347" fill-rule="nonzero" opacity="1" stroke="none"/>
<path d="M104.34 364.36C104.34 364.36 47.34 441.47 154.4 426.5C154.4 426.5 128.51 493.26 137.72 563.5L285 563.5C285 563.5 273.45 432.28 255.16 388C252.654 381.974 247.289 377.609 240.88 376.38L169.94 362.6L104.34 364.36Z" fill="#2f2e41" fill-rule="nonzero" opacity="1" stroke="none"/>
<path d="M85.92 625.03L92.83 625.03L174.54 377.02L167.06 376.44L85.92 625.03Z" fill="#9ea0a3" fill-rule="nonzero" opacity="1" stroke="none"/>
<path d="M403.57 623.88L396.67 623.88L314.95 375.87L322.43 375.29L403.57 623.88Z" fill="#9ea0a3" fill-rule="nonzero" opacity="1" stroke="none"/>
<path d="M309.77 275.16C309.77 275.16 319.56 270.56 314.38 278.62C314.38 278.62 318.98 279.77 310.38 283.22C310.38 283.22 301.68 285.12 296.82 289.06L294.82 281.49L309.77 275.16Z" fill="#f7a48b" fill-rule="nonzero" opacity="1" stroke="none"/>
<path d="M206.19 309.69L217.7 326.38L278.12 285.52C278.12 285.52 287.33 279.19 293.66 277.46L314.18 268.52C314.675 268.304 315.238 268.307 315.731 268.528C316.224 268.749 316.601 269.167 316.77 269.68L316.77 269.68C317.054 270.527 316.713 271.457 315.95 271.92C310.71 275.13 291.72 287.29 297.69 291.27C297.69 291.27 301.78 292.64 306.69 289.71C307.094 289.457 307.618 289.509 307.965 289.835C308.313 290.161 308.397 290.681 308.17 291.1C307.12 293.1 304.17 295.95 296.51 299.33C296.51 299.33 265.43 313.14 247.02 336.74C247.02 336.74 219.4 372.41 204.44 354.57L179.33 329.29L180.84 326.95L206.19 309.69Z" fill="#f9b499" fill-rule="nonzero" opacity="1" stroke="none"/>
<path d="M206.19 309.69L185.28 335.21L179.36 329.29C179.36 329.29 179.72 328.68 180.87 326.95L206.19 309.69Z" fill="#f7a48b" fill-rule="nonzero" opacity="1" stroke="none"/>
<path d="M122.75 272.86C122.75 272.86 91.68 273.44 79.6 298.76L66.94 325.76L104.34 330.37L104.34 364.32L169.94 362.59L176.27 332.67C178.33 331.237 179.928 329.236 180.87 326.91L206.19 309.65C206.19 309.65 194.11 279.15 160.19 274.55L129.69 272.82L122.75 272.86Z" fill="#00c16e" fill-rule="nonzero" opacity="1" stroke="none"/>
<path d="M110.09 301.92C109.939 301.92 109.815 301.801 109.81 301.65C108.69 284.85 91.81 283.88 91.66 283.88C91.4998 283.88 91.37 283.75 91.37 283.59C91.37 283.43 91.4998 283.3 91.66 283.3C91.84 283.3 109.2 284.3 110.35 301.61C110.355 301.687 110.33 301.763 110.279 301.821C110.229 301.879 110.157 301.915 110.08 301.92L110.09 301.92Z" fill="#000000" fill-rule="nonzero" opacity="0.2" stroke="none"/>
<path d="M104.34 330.69L104.26 330.69C104.186 330.669 104.123 330.619 104.085 330.552C104.047 330.484 104.038 330.404 104.06 330.33L110.97 307.33C110.99 307.22 111.071 307.131 111.18 307.101C111.288 307.072 111.403 307.108 111.476 307.193C111.549 307.278 111.566 307.398 111.52 307.5L104.62 330.5C104.575 330.615 104.464 330.69 104.34 330.69Z" fill="#000000" fill-rule="nonzero" opacity="0.2" stroke="none"/>
<path d="M106.64 321.49L106.64 321.49L81.86 318C81.7034 317.979 81.5923 317.837 81.61 317.68C81.6199 317.603 81.6605 317.533 81.7225 317.486C81.7846 317.439 81.863 317.419 81.94 317.43L106.68 320.88C106.84 320.88 106.97 321.01 106.97 321.17C106.97 321.33 106.84 321.46 106.68 321.46L106.64 321.49Z" fill="#000000" fill-rule="nonzero" opacity="0.2" stroke="none"/>
<path d="M105.85 326.4L105.85 326.4L86.49 323.21C86.3371 323.18 86.2355 323.034 86.26 322.88C86.2697 322.803 86.3106 322.734 86.3731 322.689C86.4356 322.643 86.5141 322.626 86.59 322.64L105.94 325.83C106.097 325.856 106.204 326.003 106.18 326.16C106.15 326.314 106.006 326.419 105.85 326.4Z" fill="#000000" fill-rule="nonzero" opacity="0.2" stroke="none"/>
<path d="M150.91 300.91C139.59 300.91 130.21 295.06 130.08 294.97C129.949 294.883 129.912 294.707 129.996 294.574C130.08 294.441 130.255 294.399 130.39 294.48C130.58 294.61 149.39 306.35 165.76 296.21C165.896 296.13 166.071 296.169 166.16 296.3C166.2 296.366 166.212 296.446 166.193 296.521C166.175 296.596 166.127 296.661 166.06 296.7C161.508 299.504 156.256 300.963 150.91 300.91Z" fill="#000000" fill-rule="nonzero" opacity="0.2" stroke="none"/>
<path d="M149.8 322.06C149.644 322.06 149.515 321.936 149.51 321.78L149 300.43C148.997 300.353 149.025 300.278 149.078 300.222C149.13 300.166 149.203 300.133 149.28 300.13C149.356 300.127 149.43 300.156 149.484 300.208C149.539 300.261 149.57 300.334 149.57 300.41L150.11 321.77C150.113 321.846 150.084 321.92 150.032 321.974C149.979 322.029 149.906 322.06 149.83 322.06L149.8 322.06Z" fill="#000000" fill-rule="nonzero" opacity="0.2" stroke="none"/>
<path d="M173.39 334.72C173.285 334.723 173.187 334.665 173.14 334.57C173.102 334.503 173.093 334.423 173.116 334.349C173.138 334.275 173.191 334.214 173.26 334.18C177.054 332.271 179.867 328.851 181.01 324.76C184.44 312.76 175.01 296.19 174.87 296.02C174.793 295.884 174.837 295.712 174.97 295.63C175.109 295.552 175.284 295.596 175.37 295.73C175.47 295.9 185.06 312.66 181.56 324.91C180.39 329.151 177.485 332.702 173.56 334.69C173.507 334.714 173.448 334.724 173.39 334.72Z" fill="#000000" fill-rule="nonzero" opacity="0.2" stroke="none"/>
<path d="M182.34 314.29C182.242 314.296 182.149 314.245 182.1 314.16C182.056 314.096 182.041 314.016 182.058 313.94C182.075 313.865 182.123 313.799 182.19 313.76L199.13 303.12C199.194 303.076 199.274 303.061 199.35 303.078C199.425 303.095 199.491 303.143 199.53 303.21C199.574 303.273 199.589 303.351 199.571 303.425C199.554 303.499 199.507 303.563 199.44 303.6L182.49 314.25C182.445 314.277 182.393 314.291 182.34 314.29Z" fill="#000000" fill-rule="nonzero" opacity="0.2" stroke="none"/>
<path d="M181.75 319.31C181.652 319.316 181.559 319.265 181.51 319.18C181.468 319.118 181.454 319.042 181.469 318.968C181.484 318.895 181.527 318.831 181.59 318.79L196.83 308.87C196.894 308.826 196.974 308.811 197.05 308.828C197.125 308.845 197.191 308.893 197.23 308.96C197.271 309.023 197.284 309.101 197.267 309.174C197.25 309.247 197.204 309.311 197.14 309.35L181.9 319.27C181.855 319.298 181.803 319.312 181.75 319.31Z" fill="#000000" fill-rule="nonzero" opacity="0.2" stroke="none"/>
<path d="M262.01 306.81L234.39 365.51L186.26 364.81L186.26 373.36L337.39 373.36L369.62 307.96L262.01 306.81Z" fill="#00c16e" fill-rule="nonzero" opacity="1" stroke="none"/>
<path d="M294.83 346.786C292.358 344.314 293.409 339.255 297.178 335.486C300.946 331.718 306.005 330.667 308.477 333.139C310.949 335.611 309.898 340.67 306.13 344.438C302.361 348.207 297.302 349.258 294.83 346.786Z" fill="none" opacity="1" stroke="#ffffff" stroke-linecap="butt" stroke-linejoin="miter" stroke-width="1"/>
<path d="M217.7 326.38L214.82 330.41" fill="none" opacity="1" stroke="#f7a48b" stroke-linecap="round" stroke-linejoin="round" stroke-width="1"/>
<path d="M50.82 371.84L439.82 371.84L439.82 371.84L439.82 379.32L439.82 379.32L50.82 379.32L50.82 379.32L50.82 371.84L50.82 371.84Z" fill="#e1e1e2" fill-rule="nonzero" opacity="1" stroke="none"/>
<path d="M129.66 253.3L129.66 272.86L122.75 272.86C122.75 272.86 125.63 296.45 150.38 295.86C150.38 295.86 173.38 295.28 160.16 274.57L159.01 259.57L132.54 249.21L129.66 253.3Z" fill="#f9b499" fill-rule="nonzero" opacity="1" stroke="none"/>
<path d="M158.06 245.53L160.16 274.45C160.16 274.45 148.27 278.91 131.67 252.2L158.06 245.53Z" fill="#f7a48b" fill-rule="nonzero" opacity="1" stroke="none"/>
<path d="M104.63 215.32C104.63 209.123 109.653 204.1 115.85 204.1C122.047 204.1 127.07 209.123 127.07 215.32C127.07 221.517 122.047 226.54 115.85 226.54C109.653 226.54 104.63 221.517 104.63 215.32Z" fill="#2f2e41" fill-rule="nonzero" opacity="1" stroke="none"/>
<path d="M115.27 223.66C115.27 217.463 120.293 212.44 126.49 212.44C132.687 212.44 137.71 217.463 137.71 223.66C137.71 229.857 132.687 234.88 126.49 234.88C120.293 234.88 115.27 229.857 115.27 223.66Z" fill="#00c16e" fill-rule="nonzero" opacity="1" stroke="none"/>
<path d="M161.15 263.18C152.02 268.78 138.01 262.53 129.87 249.24C129.082 247.948 128.368 246.612 127.73 245.24C123.92 237.17 123.25 228.79 125.6 222.57C126.692 219.444 128.806 216.777 131.6 215C135.9 212.36 141.29 212.35 146.65 214.48C148.989 215.43 151.194 216.681 153.21 218.2C157.1 221.151 160.393 224.816 162.91 229C171.06 242.27 170.27 257.58 161.15 263.18Z" fill="#f9b499" fill-rule="nonzero" opacity="1" stroke="none"/>
<path d="M153.24 218.24C152.99 219.34 147.88 241.06 129.37 246.1L127.73 245.28C123.92 237.21 123.25 228.83 125.6 222.61L146.68 214.52C149.019 215.47 151.224 216.721 153.24 218.24Z" fill="#f7a48b" fill-rule="nonzero" opacity="1" stroke="none"/>
<path d="M153.25 218.19C153.25 218.19 143.47 238.52 125.92 240.73L129.66 253.3L129.66 272.86C129.66 272.86 105.78 271.42 88.55 286.65C88.55 286.65 87.65 282.07 95.71 275.74C95.71 275.74 98.01 271.74 93.41 267.68C93.41 267.68 90.53 261.35 96.86 255.6C96.86 255.6 113.55 244.66 117 225.67C117 225.67 117 207.84 148.65 211.29C148.65 211.29 157.86 207.29 164.19 223.37C164.19 223.37 168.19 236.61 175.69 242.37C175.69 242.37 189.51 249.85 184.9 262.51C183.933 265.031 184.37 267.876 186.05 269.99C186.05 269.99 199.36 282.62 188.39 286.66C188.39 286.66 175.69 276.32 160.16 274.6L159.29 263.95C159.29 263.95 168.5 260.5 168.54 247.43C167.999 235.907 162.405 225.209 153.25 218.19Z" fill="#2f2e41" fill-rule="nonzero" opacity="1" stroke="none"/>
<path d="M123.048 250.781C120.728 247.171 120.907 242.921 123.449 241.287C125.99 239.654 129.931 241.256 132.251 244.866C134.571 248.476 134.392 252.727 131.851 254.36C129.309 255.993 125.368 254.391 123.048 250.781Z" fill="#f9b499" fill-rule="nonzero" opacity="1" stroke="none"/>
<path d="M68.66 325.8L58.3 356.3C58.3 356.3 53.13 370.11 71.54 373.56L189.54 375.29C189.54 375.29 201.62 377.02 192.41 368.38C192.41 368.38 175.72 355.15 159.61 353.38C143.5 351.61 157.89 352.81 157.89 352.81L94.59 345.9L102.91 330.5L68.66 325.8Z" fill="#f9b499" fill-rule="nonzero" opacity="1" stroke="none"/>
<path d="M189.51 375.58C189.371 375.583 189.249 375.486 189.22 375.35C188.12 370.35 176.88 366.97 176.76 366.93C176.687 366.912 176.624 366.863 176.588 366.797C176.552 366.73 176.545 366.652 176.57 366.58C176.591 366.506 176.641 366.443 176.708 366.405C176.776 366.367 176.856 366.358 176.93 366.38C177.4 366.53 188.61 369.94 189.79 375.23C189.821 375.384 189.723 375.535 189.57 375.57L189.51 375.58Z" fill="#f7a48b" fill-rule="nonzero" opacity="1" stroke="none"/>
<path d="M193.56 375.42L193.5 375.42C193.347 375.385 193.249 375.234 193.28 375.08C194.39 369.49 178.64 364.08 178.48 364.08C178.331 364.03 178.25 363.869 178.3 363.72C178.35 363.571 178.511 363.49 178.66 363.54C179.33 363.76 195.06 369.14 193.84 375.22C193.807 375.345 193.689 375.429 193.56 375.42Z" fill="#f7a48b" fill-rule="nonzero" opacity="1" stroke="none"/>
<path d="M187.59 222.68L189.42 221.08C196.95 214.49 201.42 205.97 203.87 199.74L198.87 199.74C191.352 199.729 185.261 193.638 185.25 186.12L185.25 116.38C185.256 108.859 191.349 102.761 198.87 102.75L269.41 102.75C276.931 102.761 283.024 108.859 283.03 116.38L283.03 186.12C283.019 193.638 276.928 199.729 269.41 199.74L223.41 199.74C212.19 214.57 190.06 221.86 189.84 221.93L187.59 222.68ZM198.9 103.75C191.931 103.761 186.286 109.411 186.28 116.38L186.28 186.12C186.286 193.088 191.932 198.734 198.9 198.74L205.32 198.74L205.06 199.42C202.187 207.179 197.702 214.241 191.9 220.14C197.9 217.84 213.9 210.82 222.82 198.94L222.97 198.74L269.44 198.74C276.408 198.734 282.054 193.088 282.06 186.12L282.06 116.38C282.054 109.411 276.409 103.761 269.44 103.75L198.9 103.75Z" fill="#00c16e" fill-rule="nonzero" opacity="1" stroke="none"/>
<path d="M207.06 112.77L262.07 112.77C268.129 112.77 273.04 117.681 273.04 123.74L273.04 178.75C273.04 184.809 268.129 189.72 262.07 189.72L207.06 189.72C201.001 189.72 196.09 184.809 196.09 178.75L196.09 123.74C196.09 117.681 201.001 112.77 207.06 112.77Z" fill="#00c16e" fill-rule="nonzero" opacity="1" stroke="none"/>
<path d="M230.64 158.09C230.585 156.66 230.95 155.245 231.69 154.02C233.04 152.206 234.568 150.531 236.25 149.02L237.51 147.76C238.672 146.721 239.751 145.595 240.74 144.39C241.253 143.7 241.524 142.86 241.51 142C241.596 140.471 240.959 138.989 239.79 138C238.412 136.964 236.71 136.453 234.99 136.56C231.39 136.56 228.163 138.56 225.31 142.56L218.08 137.37C220.003 134.482 222.575 132.085 225.59 130.37C228.508 128.754 231.794 127.92 235.13 127.95C239.99 127.95 243.86 129.223 246.74 131.77C249.62 134.317 251.057 137.813 251.05 142.26C251.08 143.688 250.832 145.107 250.32 146.44C249.74 147.769 248.958 149.001 248 150.09C246.95 151.33 245.32 153 243.13 155.09C242.039 156.063 241.063 157.156 240.22 158.35C239.774 159.231 239.568 160.214 239.62 161.2L230.62 161.2L230.64 158.09ZM231.23 173.09C230.215 172.162 229.644 170.845 229.66 169.47C229.631 168.086 230.203 166.758 231.23 165.83C232.285 164.844 233.686 164.312 235.13 164.35C236.549 164.319 237.922 164.851 238.95 165.83C239.979 166.757 240.556 168.085 240.53 169.47C240.542 170.846 239.967 172.163 238.95 173.09C237.928 174.081 236.553 174.624 235.13 174.6C233.679 174.627 232.276 174.076 231.23 173.07L231.23 173.09Z" fill="#ffffff" fill-rule="nonzero" opacity="0.5" stroke="none"/>
<path d="M387.67 545.86C388.128 534.307 387.972 522.737 387.2 511.2C385.49 487.406 381.859 463.789 376.34 440.58C373.34 427.52 369.58 414.66 365.69 401.84C365.57 401.44 364.97 401.56 365.07 401.96C377.07 447.2 386.94 493.89 386.23 540.96C386.04 554.19 384.52 567.06 383.23 580.13C383.23 580.49 383.77 580.62 383.85 580.27C386.4 569.08 387.21 557.35 387.67 545.86Z" fill="#00c16e" fill-rule="nonzero" opacity="1" stroke="none"/>
<path d="M365.07 402C365.07 402 346.86 448.2 350.93 459.06C355 469.92 363.42 472.28 363.42 472.28C363.42 472.28 352.28 488.15 360.06 503.1C367.84 518.05 385.19 517.31 386.28 534.21C386.28 534.17 387.25 463.47 365.07 402Z" fill="#00c16e" fill-rule="nonzero" opacity="1" stroke="none"/>
<path d="M384.31 505C384.34 504.919 384.34 504.831 384.31 504.75C381.919 473.208 375.999 442.033 366.66 411.81C366.66 411.73 366.49 411.81 366.51 411.81C370.11 425.33 373.297 438.917 376.07 452.57C373.627 450.257 370.642 448.593 367.39 447.73C367.32 447.73 367.29 447.8 367.39 447.82C370.824 449.076 373.91 451.133 376.39 453.82C376.93 456.47 377.45 459.11 377.94 461.82C373.88 457.28 368.23 455.03 362.59 452.88C362.51 452.88 362.47 452.98 362.59 453C368.47 455.4 374.32 458.48 378.31 463.58C379.69 471.253 380.907 478.947 381.96 486.66C379.019 483.579 375.246 481.418 371.1 480.44C370.98 480.44 370.9 480.6 371.04 480.64C375.313 481.873 379.135 484.323 382.04 487.69L382.12 487.69C382.47 490.4 382.82 493.13 383.12 495.84C380.842 493.917 378.274 492.367 375.51 491.25C375.45 491.25 375.41 491.34 375.51 491.37C378.328 492.59 380.908 494.3 383.13 496.42L383.24 496.42C383.53 499.06 383.83 501.6 384.09 504.19C379.992 499.243 374.673 495.451 368.66 493.19C368.638 493.18 368.612 493.18 368.589 493.189C368.567 493.199 368.549 493.217 368.54 493.24C368.527 493.265 368.526 493.294 368.538 493.32C368.55 493.345 368.573 493.364 368.6 493.37C374.538 495.993 379.753 500.014 383.8 505.09C383.897 505.2 384.048 505.247 384.19 505.21C384.58 509.21 384.94 513.14 385.19 517.11C385.19 517.11 385.28 517.17 385.28 517.11C384.92 513.14 384.71 509.06 384.31 505Z" fill="#3f4347" fill-rule="nonzero" opacity="1" stroke="none"/>
<path d="M369.69 443.16C366.393 441.112 362.627 439.938 358.75 439.75C358.711 439.75 358.68 439.781 358.68 439.82C358.685 439.855 358.715 439.88 358.75 439.88C362.494 440.583 366.131 441.77 369.57 443.41C369.7 443.48 369.82 443.25 369.69 443.16Z" fill="#3f4347" fill-rule="nonzero" opacity="1" stroke="none"/>
<path d="M371.9 492.08C369.363 490.63 366.573 489.673 363.68 489.26C363.58 489.26 363.58 489.41 363.68 489.42C366.506 489.981 369.24 490.937 371.8 492.26C371.91 492.32 372 492.13 371.9 492.08Z" fill="#3f4347" fill-rule="nonzero" opacity="1" stroke="none"/>
<path d="M435.52 459.82C427.827 465.145 420.759 471.321 414.45 478.23C407.953 485.55 402.937 494.06 399.68 503.29C392.763 522.531 389.047 542.776 388.68 563.22C388.436 574.541 389.524 585.852 391.92 596.92C391.95 597.094 392.116 597.21 392.29 597.18C392.465 597.145 392.581 596.976 392.55 596.8C389.569 577.271 389.681 557.394 392.88 537.9C396 518.78 400.88 497.99 413.06 482.45C419.67 474 427.93 467.35 436.06 460.45C436.51 460.1 436 459.51 435.52 459.82Z" fill="#00c16e" fill-rule="nonzero" opacity="1" stroke="none"/>
<path d="M391.32 549.46C395.707 542.372 400.862 535.789 406.69 529.83C415.79 520.72 423.46 514.25 424.69 508.24C425.92 502.23 415.56 497.78 415.56 497.78C415.56 497.78 428.16 500.04 431.56 494.78C434.96 489.52 436.68 458.86 436.68 458.86C436.68 458.86 413.8 475.2 403.1 498.15C392.4 521.1 391.32 549.46 391.32 549.46Z" fill="#00c16e" fill-rule="nonzero" opacity="1" stroke="none"/>
<path d="M428.77 466.69C419.13 476.17 409.43 486.26 403.77 498.69C401.832 503.001 400.139 507.418 398.7 511.92L398.7 511.92C398.41 512.82 398.11 513.73 397.83 514.64C397.82 514.69 397.82 514.74 397.83 514.79C395.132 524.095 392.956 533.543 391.31 543.09C391.31 543.09 391.4 543.18 391.42 543.09C392.42 538.31 393.49 533.49 394.71 528.67L394.84 528.67C396.75 527.856 398.773 527.34 400.84 527.14C400.97 527.14 400.96 526.89 400.84 526.9C398.817 526.988 396.815 527.352 394.89 527.98C396 523.65 397.2 519.32 398.56 515.05C403.016 513.972 407.576 513.379 412.16 513.28L412.16 513.2C407.676 512.994 403.184 513.377 398.8 514.34C399.03 513.61 399.28 512.88 399.53 512.16C402.508 511.442 405.532 510.928 408.58 510.62M408.58 510.52C405.598 510.578 402.629 510.94 399.72 511.6C400.97 507.91 402.36 504.27 403.81 500.73C405.045 497.824 406.492 495.013 408.14 492.32C410.553 491.711 413.006 491.27 415.48 491C415.54 491 415.54 490.88 415.48 490.88C413.121 490.714 410.751 490.968 408.48 491.63C409.693 489.69 410.967 487.79 412.3 485.93L412.3 485.93C417.45 484.79 422.66 483.74 427.92 484.73C428 484.73 428.04 484.58 427.92 484.57C422.92 483.25 417.92 484.01 412.97 484.99C413.5 484.27 414.06 483.56 414.63 482.85C417.741 481.89 420.974 481.381 424.23 481.34C424.258 481.34 424.28 481.318 424.28 481.29C424.28 481.262 424.258 481.24 424.23 481.24C421.223 480.961 418.191 481.228 415.28 482.03C419.52 476.74 424.22 471.78 428.86 466.88C429.14 466.58 428.98 466.51 428.74 466.68L408.58 510.52Z" fill="#3f4347" fill-rule="nonzero" opacity="1" stroke="none"/>
<path d="M428.52 487.57C427.01 487.352 425.481 487.298 423.96 487.41C423.916 487.422 423.879 487.45 423.856 487.49C423.834 487.529 423.828 487.576 423.84 487.62C423.857 487.678 423.902 487.723 423.96 487.74C425.47 487.74 426.96 487.66 428.49 487.74C428.541 487.73 428.576 487.682 428.57 487.63C428.562 487.604 428.544 487.582 428.52 487.57Z" fill="#3f4347" fill-rule="nonzero" opacity="1" stroke="none"/>
<path d="M412 517.28C409.602 517.346 407.234 517.827 405 518.7L405 518.8C407.34 518.25 409.69 518.02 412.06 517.63C412.155 517.625 412.23 517.546 412.23 517.45C412.229 517.394 412.202 517.341 412.157 517.308C412.112 517.275 412.054 517.264 412 517.28Z" fill="#3f4347" fill-rule="nonzero" opacity="1" stroke="none"/>
<path d="M407.07 507C406.063 506.99 405.058 507.08 404.07 507.27C403.98 507.27 403.98 507.45 404.07 507.45C405.072 507.498 406.077 507.452 407.07 507.31C407.26 507.3 407.26 507 407.07 507Z" fill="#3f4347" fill-rule="nonzero" opacity="1" stroke="none"/>
<path d="M324.16 492.33C331.617 494.844 338.763 498.199 345.46 502.33C352.414 506.745 358.443 512.472 363.21 519.19C373.265 533.174 380.963 548.709 386 565.18C388.801 574.282 390.536 583.678 391.17 593.18C391.137 593.302 391.026 593.386 390.9 593.386C390.774 593.386 390.663 593.302 390.63 593.18C388.518 576.685 383.831 560.623 376.74 545.58C369.79 530.83 361.02 515.16 347.65 505.37C340.34 500.08 332.13 496.58 323.94 492.9C323.42 492.78 323.72 492.18 324.16 492.33Z" fill="#00c16e" fill-rule="nonzero" opacity="1" stroke="none"/>
<path d="M380.62 554.65C375.426 549.928 369.724 545.796 363.62 542.33C354.13 537.04 346.43 533.6 344.08 529C341.73 524.4 349.08 518.42 349.08 518.42C349.08 518.42 339.4 523.15 335.39 519.68C331.38 516.21 323 491.79 323 491.79C323 491.79 345.33 499.72 359.28 515.84C373.23 531.96 380.62 554.65 380.62 554.65Z" fill="#00c16e" fill-rule="nonzero" opacity="1" stroke="none"/>
<path d="M379.42 549.63C368.25 528.63 353.34 509.69 332.91 497.17L332.91 497.17C338.239 500.602 343.241 504.519 347.85 508.87C343.697 508.644 339.558 509.517 335.85 511.4C335.821 511.431 335.821 511.479 335.85 511.51C335.869 511.519 335.891 511.519 335.91 511.51C339.855 510.031 344.048 509.322 348.26 509.42L348.4 509.42L350.55 511.51C348.393 511.611 346.248 511.899 344.14 512.37M344.14 512.45C346.372 512.034 348.64 511.846 350.91 511.89C354.66 515.687 358.193 519.694 361.49 523.89C359.987 523.681 358.458 523.79 357 524.21C356.956 524.232 356.935 524.283 356.95 524.33L357 524.33C358.59 524.142 360.195 524.118 361.79 524.26C362.41 525.05 363.02 525.81 363.63 526.61C359.068 526.345 354.493 526.814 350.08 528L350.08 528.1C354.661 527.198 359.34 526.892 364 527.19C364.57 527.95 365.11 528.73 365.67 529.49C362.95 529.423 360.234 529.736 357.6 530.42C357.49 530.42 357.52 530.6 357.6 530.58C360.344 529.984 363.157 529.766 365.96 529.93C368.36 533.23 370.67 536.62 372.87 540.05C371.69 539.839 370.477 539.911 369.33 540.26M369.33 540.35C370.606 540.26 371.888 540.32 373.15 540.53C375.15 543.63 377.15 546.76 378.92 549.91C379.17 550.14 379.6 549.91 379.42 549.66L369.33 540.35Z" fill="#3f4347" fill-rule="nonzero" opacity="1" stroke="none"/>
<path d="M362.08 532.24C359.886 532.081 357.682 532.349 355.59 533.03M355.59 533.13C357.724 532.772 359.878 532.548 362.04 532.46C362.23 532.46 362.23 532.25 362.04 532.24L355.59 533.13Z" fill="#3f4347" fill-rule="nonzero" opacity="1" stroke="none"/>
<path d="M342.59 506.68C341.587 506.611 340.579 506.668 339.59 506.85C339.54 506.85 339.5 506.89 339.5 506.94C339.5 506.99 339.54 507.03 339.59 507.03C340.59 506.93 341.54 506.97 342.53 506.94C342.565 506.949 342.601 506.943 342.631 506.924C342.662 506.905 342.683 506.875 342.69 506.84C342.703 506.769 342.66 506.699 342.59 506.68Z" fill="#3f4347" fill-rule="nonzero" opacity="1" stroke="none"/>
<path d="M409.43 623.99L359.01 623.99L366.2 571.33L368.03 557.84L400.39 557.84L402.23 571.33L409.43 623.99Z" fill="#3f4347" fill-rule="nonzero" opacity="1" stroke="none"/>
<path d="M402.23 571.33L366.2 571.33L368.03 557.84L400.39 557.84L402.23 571.33Z" fill="#2e3135" fill-rule="nonzero" opacity="1" stroke="none"/>
<path d="M363.41 553.15L405.03 553.15L405.03 553.15L405.03 564.59L405.03 564.59L363.41 564.59L363.41 564.59L363.41 553.15L363.41 553.15Z" fill="#3f4347" fill-rule="nonzero" opacity="1" stroke="none"/>
</g>
</svg>
