<?xml version="1.0" encoding="UTF-8" standalone="no"?>
<!DOCTYPE svg PUBLIC "-//W3C//DTD SVG 1.1//EN" "http://www.w3.org/Graphics/SVG/1.1/DTD/svg11.dtd">
<!-- Created with Vectornator (http://vectornator.io/) -->
<svg height="100%" stroke-miterlimit="10" style="fill-rule:nonzero;clip-rule:evenodd;stroke-linecap:round;stroke-linejoin:round;" version="1.1" viewBox="0 0 865.76 682.89" width="100%" xml:space="preserve" xmlns="http://www.w3.org/2000/svg" xmlns:xlink="http://www.w3.org/1999/xlink">
<defs/>
<g id="Untitled">
<path d="M83.53 380.71L83.53 514.05C70.53 494.91 47.37 455.82 39.53 409.96L39.53 380.71L83.53 380.71Z" fill="#2f2e41" fill-rule="nonzero" opacity="1" stroke="none"/>
<path d="M83.53 380.71L83.53 514.05C70.53 494.91 47.37 455.82 39.53 409.96L39.53 380.71L83.53 380.71Z" fill="#000000" fill-rule="nonzero" opacity="0.2" stroke="none"/>
<path d="M139.14 622.8C139.14 622.8 136.66 582.26 92.72 526.66C92.72 526.66-67.05 330.9 153.62 219.66C153.62 219.66 215.62 174.13 369.62 222.96C369.62 222.96 473.71 256.42 547.69 176.04C562.548 159.686 580.483 146.42 600.47 137C641.97 117.77 707.67 103.84 761.76 167.22C761.76 167.22 851.58 288.43 730.69 403.16C719.649 413.697 713.696 428.488 714.359 443.735C715.021 458.983 722.236 473.201 734.15 482.74C743.358 489.882 753.414 495.858 764.09 500.53C809.93 521.3 836.48 570.38 827.09 619.83C826.91 620.83 826.71 621.83 826.5 622.83L139.14 622.8Z" fill="#00c16e" fill-rule="nonzero" opacity="1" stroke="none"/>
<path d="M827.05 619.83C826.86 620.83 826.66 621.83 826.46 622.83L139.13 622.83C139.13 622.83 137.13 590.53 105.5 544.06C101.687 538.46 97.4267 532.667 92.72 526.68C92.72 526.68 89.02 522.15 83.53 514.07C70.53 494.93 47.37 455.84 39.53 409.98C28.92 348.1 46.15 273.88 153.62 219.72C153.62 219.72 215.62 174.19 369.62 223.02C369.62 223.02 473.7 256.48 547.69 176.1C562.539 159.725 580.471 146.438 600.46 137C641.97 117.77 707.66 103.84 761.75 167.22C761.75 167.22 851.58 288.43 730.68 403.16C719.639 413.697 713.686 428.488 714.349 443.735C715.011 458.983 722.226 473.201 734.14 482.74C743.347 489.884 753.404 495.859 764.08 500.53C809.93 521.3 836.47 570.38 827.05 619.83Z" fill="#ffffff" fill-rule="nonzero" opacity="0.7" stroke="none"/>
<path d="M676.62 173.36L720.64 173.36L720.64 173.36L720.64 304.25L720.64 304.25L676.62 304.25L676.62 304.25L676.62 173.36L676.62 173.36Z" fill="#00c16e" fill-rule="nonzero" opacity="1" stroke="none"/>
<path d="M676.62 173.36L720.64 173.36L720.64 173.36L720.64 304.25L720.64 304.25L676.62 304.25L676.62 304.25L676.62 173.36L676.62 173.36Z" fill="#000000" fill-rule="nonzero" opacity="0.2" stroke="none"/>
<path d="M720.64 173.36L802.88 173.36L802.88 173.36L802.88 304.25L802.88 304.25L720.64 304.25L720.64 304.25L720.64 173.36L720.64 173.36Z" fill="#00c16e" fill-rule="nonzero" opacity="1" stroke="none"/>
<path d="M741.49 173.36L757.71 173.36L757.71 173.36L757.71 211.59L757.71 211.59L741.49 211.59L741.49 211.59L741.49 173.36L741.49 173.36Z" fill="#000000" fill-rule="nonzero" opacity="0.2" stroke="none"/>
<path d="M580.47 304.26L802.88 304.26L802.88 304.26L802.88 314.69L802.88 314.69L580.47 314.69L580.47 314.69L580.47 304.26L580.47 304.26Z" fill="#00c16e" fill-rule="nonzero" opacity="1" stroke="none"/>
<path d="M580.47 304.26L802.88 304.26L802.88 304.26L802.88 314.69L802.88 314.69L580.47 314.69L580.47 314.69L580.47 304.26L580.47 304.26Z" fill="#ffffff" fill-rule="nonzero" opacity="0.3" stroke="none"/>
<path d="M588.58 230.12L625.65 230.12L625.65 230.12L625.65 304.26L625.65 304.26L588.58 304.26L588.58 304.26L588.58 230.12L588.58 230.12Z" fill="#2f2e41" fill-rule="nonzero" opacity="1" stroke="none"/>
<path d="M588.58 230.12L625.65 230.12L625.65 230.12L625.65 304.26L625.65 304.26L588.58 304.26L588.58 304.26L588.58 230.12L588.58 230.12Z" fill="#000000" fill-rule="nonzero" opacity="0.2" stroke="none"/>
<path d="M625.65 230.12L691.68 230.12L691.68 230.12L691.68 304.26L691.68 304.26L625.65 304.26L625.65 304.26L625.65 230.12L625.65 230.12Z" fill="#2f2e41" fill-rule="nonzero" opacity="1" stroke="none"/>
<path d="M641.87 230.12L654.61 230.12L654.61 230.12L654.61 252.13L654.61 252.13L641.87 252.13L641.87 252.13L641.87 230.12L641.87 230.12Z" fill="#000000" fill-rule="nonzero" opacity="0.2" stroke="none"/>
<path d="M105.5 544L39.5 544L39.5 410C47.35 455.86 70.5 495 83.5 514.09C88.99 522.17 92.69 526.7 92.69 526.7C97.43 532.653 101.7 538.42 105.5 544Z" fill="#ffffff" fill-rule="nonzero" opacity="1" stroke="none"/>
<path d="M228.33 380.71L228.33 544L105.5 544C101.687 538.4 97.4267 532.607 92.72 526.62C92.72 526.62 89.02 522.09 83.53 514.01L83.53 380.71L228.33 380.71Z" fill="#2f2e41" fill-rule="nonzero" opacity="1" stroke="none"/>
<path d="M139.14 380.71L168.1 380.71L168.1 380.71L168.1 433.99L168.1 433.99L139.14 433.99L139.14 433.99L139.14 380.71L139.14 380.71Z" fill="#000000" fill-rule="nonzero" opacity="0.2" stroke="none"/>
<path d="M611.32 622.8L391.66 622.8C390.66 607.61 395.96 560.87 397.87 544.57C398.3 540.99 398.55 538.88 398.55 538.88L399.1 505.09L412.1 505.09L562.87 531.87L574.01 539.23L606.51 560.7L611.32 622.8Z" fill="#2f2e41" fill-rule="nonzero" opacity="1" stroke="none"/>
<path d="M540.06 622.8L559.31 622.8C559.31 622.8 570.95 588.8 609.89 604.08L606.56 560.7L562.92 531.87L532.07 578L540.06 622.8Z" fill="#000000" fill-rule="nonzero" opacity="0.2" stroke="none"/>
<path d="M391.66 622.8L461.08 622.8C461.08 622.8 501.44 601.8 517.21 583.34L516.21 558.02C516.21 558.02 450.45 562.48 397.91 544.57C397.87 544.57 390.5 603.11 391.66 622.8Z" fill="#000000" fill-rule="nonzero" opacity="0.2" stroke="none"/>
<path d="M574.05 539.23C559.98 547.07 547.92 559.23 547.95 577.97C547.95 577.97 545.75 603.28 540.05 622.81L517.27 622.81C517.39 602.6 517.41 564.81 516.17 558.02C516.17 558.02 440.11 561.23 397.87 544.57C398.29 540.99 398.55 538.88 398.55 538.88L399.09 505.09L412.15 505.09L562.92 531.87L574.05 539.23Z" fill="#000000" fill-rule="nonzero" opacity="0.2" stroke="none"/>
<path d="M586.27 396.59L593.64 410.41L649.4 397.5L637.48 375.99L631.52 375.99L588.58 394.61L586.27 396.59Z" fill="#f9b499" fill-rule="nonzero" opacity="1" stroke="none"/>
<path d="M634.92 378.39C601.32 401.56 568.92 395.77 568.92 395.77L578.19 415.46L561.94 539.4C555.1 542.119 548.023 544.201 540.8 545.62C503.71 553.15 461.71 546.72 446.95 543.98C443.408 543.338 439.806 543.093 436.21 543.25C407.08 544.42 410.21 527.82 410.21 527.82L408.34 515.71C408.282 515.372 408.005 515.115 407.664 515.082C407.322 515.049 407.001 515.249 406.88 515.57L396.3 545.19C393.99 542.88 393.99 531.29 393.99 531.29C393.43 515.86 392.37 497.29 391.38 482.06C390.3 465.27 389.38 452.53 389.38 452.53L400.38 376.65C391.11 370.86 377.79 370.28 377.79 370.28C351.74 368.75 338.86 375.84 333.14 380.81C332.179 381.645 330.842 381.896 329.644 381.467C328.446 381.038 327.572 379.995 327.36 378.74C326.634 373.637 326.453 368.471 326.82 363.33C325.63 347.11 350 259.08 350 259.08C351.16 239.39 412.22 223 412.22 223L443.51 232.68L537.09 239C550.47 242.11 565.66 250.24 565.66 250.24C585.66 258.79 594.79 282.24 594.79 282.24C628.79 340.15 637.23 364.48 637.23 364.48C643 373.76 634.92 378.39 634.92 378.39Z" fill="#00c16e" fill-rule="nonzero" opacity="1" stroke="none"/>
<path d="M570.6 347.94L551.52 292.67L596.69 353.15L578.16 352.83C578.16 352.83 573.46 348.77 570.6 347.94Z" fill="#000000" fill-rule="nonzero" opacity="0.2" stroke="none"/>
<path d="M547.53 116.23C547.658 124.002 546.647 131.751 544.53 139.23L542.23 122.79C544.217 120.791 545.993 118.592 547.53 116.23Z" fill="#2f2e41" fill-rule="nonzero" opacity="1" stroke="none"/>
<path d="M547.53 116.23C547.658 124.002 546.647 131.751 544.53 139.23L542.23 122.79C544.217 120.791 545.993 118.592 547.53 116.23Z" fill="#000000" fill-rule="nonzero" opacity="0.2" stroke="none"/>
<path d="M544.56 145.56C544.56 181.56 527.95 211.51 505.92 218.27C502.866 219.217 499.687 219.7 496.49 219.7C474.83 219.7 456.49 197.59 450.49 167.22C450.488 167.183 450.488 167.147 450.49 167.11C449.11 160.01 448.42 152.793 448.43 145.56C448.43 104.61 469.95 71.42 496.5 71.42C523.05 71.42 544.56 104.61 544.56 145.56Z" fill="#f9b499" fill-rule="nonzero" opacity="1" stroke="none"/>
<path d="M509.81 242.86C508.68 260 484 278.19 483.2 278.76L483.2 278.76C484.81 268.01 480.93 261.5 476.32 257.61L476.32 257.61C472.946 254.859 468.95 252.978 464.68 252.13C438.04 246.34 433.4 217.38 433.4 217.38C436.521 215.278 439.232 212.625 441.4 209.55C441.4 209.55 441.4 209.55 441.4 209.55C441.63 209.23 441.85 208.91 442.06 208.55C442.103 208.496 442.143 208.439 442.18 208.38C442.37 208.09 442.57 207.79 442.74 207.49C442.839 207.353 442.93 207.209 443.01 207.06C443.184 206.793 443.341 206.516 443.48 206.23C451.32 192.51 450.94 174.31 450.61 168.77C450.605 168.7 450.605 168.63 450.61 168.56C450.61 168.29 450.61 168.04 450.61 167.85C450.61 167.44 450.56 167.22 450.56 167.22C456.56 197.59 474.9 219.7 496.56 219.7C499.757 219.7 502.936 219.217 505.99 218.27L505.9 220.82C505.83 221.989 506.185 223.143 506.9 224.07C507.89 225.355 508.638 226.808 509.11 228.36C509.702 230.29 510.061 232.284 510.18 234.3L510.18 234.3C510.347 237.159 510.223 240.027 509.81 242.86Z" fill="#f9b499" fill-rule="nonzero" opacity="1" stroke="none"/>
<path d="M509.07 228.36L509.07 228.36C472.42 238.18 441.38 209.55 441.38 209.55L441.38 209.55C441.6 209.23 441.83 208.92 442.04 208.55C442.083 208.496 442.123 208.439 442.16 208.38C442.35 208.09 442.55 207.79 442.72 207.49C442.819 207.353 442.91 207.209 442.99 207.06C443.15 206.79 443.31 206.51 443.46 206.23C451.12 192.71 450.86 174.23 450.59 168.77C450.585 168.7 450.585 168.63 450.59 168.56C450.59 168.28 450.59 168.04 450.59 167.85C450.59 167.44 450.54 167.22 450.54 167.22C456.54 197.59 474.88 219.7 496.54 219.7C499.737 219.7 502.916 219.217 505.97 218.27L505.88 220.82C505.81 221.989 506.165 223.143 506.88 224.07C507.863 225.356 508.604 226.81 509.07 228.36Z" fill="#f7a48b" fill-rule="nonzero" opacity="1" stroke="none"/>
<path d="M509.81 242.86C508.66 260.24 483.17 278.77 483.17 278.77C484.78 268.02 480.9 261.51 476.29 257.62C476.75 257.78 486.67 261.62 487.81 269.5C487.81 269.5 502.34 257.03 510.14 234.31C510.319 237.164 510.209 240.028 509.81 242.86Z" fill="#f7a48b" fill-rule="nonzero" opacity="1" stroke="none"/>
<path d="M526 282.25C519.754 276.779 511.691 273.837 503.39 274C496.42 274.117 489.556 275.726 483.26 278.72C483.271 278.693 483.293 278.671 483.32 278.66L483.32 278.66L483.57 278.47L484.48 277.77L484.77 277.54C485.3 277.12 485.96 276.6 486.71 275.98L487.48 275.34L488.48 274.53L488.97 274.1C489.37 273.76 489.78 273.39 490.21 273.01C490.64 272.63 490.8 272.48 491.11 272.2L491.33 272C491.89 271.48 492.47 270.94 493.06 270.37L493.66 269.79C494.16 269.3 494.66 268.79 495.17 268.27C495.38 268.08 495.58 267.87 495.77 267.66C495.96 267.45 496.18 267.25 496.38 267.03C496.78 266.62 497.19 266.18 497.58 265.74C497.78 265.53 497.97 265.3 498.17 265.08C499.77 263.29 501.33 261.39 502.77 259.42C502.94 259.17 503.13 258.93 503.3 258.67C503.47 258.41 503.65 258.17 503.82 257.92C503.99 257.67 504.16 257.42 504.32 257.16C505.971 254.707 507.336 252.073 508.39 249.31C508.48 249.04 508.57 248.78 508.67 248.51C509.292 246.69 509.678 244.798 509.82 242.88C510.219 240.048 510.329 237.184 510.15 234.33L510.15 234.33C510.031 232.314 509.672 230.32 509.08 228.39C508.608 226.838 507.86 225.385 506.87 224.1C506.155 223.173 505.8 222.019 505.87 220.85L505.96 218.3L529.63 230.44C551.68 243.44 526 282.25 526 282.25Z" fill="#00c16e" fill-rule="nonzero" opacity="1" stroke="none"/>
<path d="M526 282.25C519.754 276.779 511.691 273.837 503.39 274C496.42 274.117 489.556 275.726 483.26 278.72C483.271 278.693 483.293 278.671 483.32 278.66L483.32 278.66L483.57 278.47L484.48 277.77L484.77 277.54C485.3 277.12 485.96 276.6 486.71 275.98L487.48 275.34L488.48 274.53L488.97 274.1C489.37 273.76 489.78 273.39 490.21 273.01C490.64 272.63 490.8 272.48 491.11 272.2L491.33 272C491.89 271.48 492.47 270.94 493.06 270.37L493.66 269.79C494.16 269.3 494.66 268.79 495.17 268.27C495.38 268.08 495.58 267.87 495.77 267.66C495.96 267.45 496.18 267.25 496.38 267.03C496.78 266.62 497.19 266.18 497.58 265.74C497.78 265.53 497.97 265.3 498.17 265.08C499.77 263.29 501.33 261.39 502.77 259.42C502.94 259.17 503.13 258.93 503.3 258.67C503.47 258.41 503.65 258.17 503.82 257.92C503.99 257.67 504.16 257.42 504.32 257.16C505.971 254.707 507.336 252.073 508.39 249.31C508.48 249.04 508.57 248.78 508.67 248.51C509.292 246.69 509.678 244.798 509.82 242.88C510.219 240.048 510.329 237.184 510.15 234.33L510.15 234.33C510.031 232.314 509.672 230.32 509.08 228.39C508.608 226.838 507.86 225.385 506.87 224.1C506.155 223.173 505.8 222.019 505.87 220.85L505.96 218.3L529.63 230.44C551.68 243.44 526 282.25 526 282.25Z" fill="#ffffff" fill-rule="nonzero" opacity="0.3" stroke="none"/>
<path d="M462.49 251.6C462.49 251.6 448.42 254.45 439.15 260.24C439.15 260.24 423.6 271.29 416.9 255.92C416.9 255.92 403.08 228.43 415.9 218.27L433.36 208.77C433.029 211.63 433.029 214.52 433.36 217.38C433.36 217.38 438.33 245.27 462.49 251.6Z" fill="#00c16e" fill-rule="nonzero" opacity="1" stroke="none"/>
<path d="M462.49 251.6C462.49 251.6 448.42 254.45 439.15 260.24C439.15 260.24 423.6 271.29 416.9 255.92C416.9 255.92 403.08 228.43 415.9 218.27L433.36 208.77C433.029 211.63 433.029 214.52 433.36 217.38C433.36 217.38 438.33 245.27 462.49 251.6Z" fill="#ffffff" fill-rule="nonzero" opacity="0.3" stroke="none"/>
<path d="M433.36 208.77C433.36 208.77 438.53 205.52 443.47 206.23C441.046 210.706 437.578 214.531 433.36 217.38C433.36 217.38 432.2 211.75 433.36 208.77Z" fill="#00c16e" fill-rule="nonzero" opacity="1" stroke="none"/>
<path d="M433.36 208.77C433.36 208.77 438.53 205.52 443.47 206.23C441.046 210.706 437.578 214.531 433.36 217.38C433.36 217.38 432.2 211.75 433.36 208.77Z" fill="#ffffff" fill-rule="nonzero" opacity="0.35" stroke="none"/>
<path d="M503.39 274C496.42 274.117 489.556 275.726 483.26 278.72L483.26 278.72C483.26 278.72 483.26 278.72 483.33 278.66L483.33 278.66L483.58 278.47L484.49 277.77L484.78 277.54C485.31 277.12 485.97 276.6 486.72 275.98L487.49 275.34L488.49 274.53C488.65 274.4 488.81 274.25 488.98 274.1C489.38 273.76 489.79 273.39 490.22 273.01C490.65 272.63 490.81 272.48 491.12 272.2L491.34 272C491.9 271.48 492.48 270.94 493.07 270.37L493.67 269.79C494.17 269.3 494.67 268.79 495.18 268.27C495.39 268.08 495.59 267.87 495.78 267.66C495.97 267.45 496.19 267.25 496.39 267.03C496.79 266.62 497.2 266.18 497.59 265.74C497.8 265.52 498 265.3 498.18 265.08C499.78 263.29 501.34 261.39 502.78 259.42C502.97 259.17 503.14 258.91 503.31 258.67C503.48 258.43 503.66 258.17 503.83 257.92C504 257.67 504.17 257.42 504.33 257.16C505.981 254.707 507.346 252.073 508.4 249.31C508.49 249.04 508.59 248.78 508.68 248.51C509.302 246.69 509.688 244.798 509.83 242.88C509.83 242.88 510.85 261 503.39 274Z" fill="#ffffff" fill-rule="nonzero" opacity="0.3" stroke="none"/>
<path d="M578.16 415.46L561.94 539.4C555.1 542.119 548.023 544.201 540.8 545.62C514.66 518.39 490.55 503.1 478.2 490.36C469.485 481.288 457.741 475.733 445.2 474.75C433.86 474.055 422.478 474.76 411.31 476.85L391.31 482.06C390.23 465.27 389.31 452.53 389.31 452.53L400.31 376.65C400.31 376.65 414.79 381.87 418.26 364.49C424.208 342.213 426.939 319.2 426.37 296.15C426.37 296.15 434.48 333.21 431.01 358.7C431.01 358.7 426.37 374.92 457.65 370.28L568.85 395.77L578.16 415.46Z" fill="#000000" fill-rule="nonzero" opacity="0.2" stroke="none"/>
<path d="M641.51 350C640.567 354.723 639.017 359.304 636.9 363.63C634.3 368.69 631.6 370.92 629.9 371.9C629.278 372.246 628.701 372.665 628.18 373.15C627.437 373.828 626.791 374.605 626.26 375.46L622.97 380.75L605.97 372.64C602.49 369.16 597.86 371.48 597.86 371.48L590.42 367.48L568.42 404.19C571.42 413.72 562.36 411.94 562.36 411.94L545.72 403.94L574.72 355.29L578.2 352.9L580.51 352.9C577.823 351.175 575.83 348.559 574.88 345.51C574.019 343.105 574.537 340.422 576.23 338.51C580.84 333.45 590.96 333.45 601.91 335.45L601.91 335.45C611.293 337.324 620.507 339.963 629.46 343.34L629.46 343.34C634.36 345.12 638.23 346.71 640.28 347.58C641.229 347.974 641.751 349.001 641.51 350Z" fill="#2f2e41" fill-rule="nonzero" opacity="1" stroke="none"/>
<path d="M580.47 335.67C580.47 335.67 583.63 352.67 593.57 359.72L593.57 359.72C592.57 359.3 582.68 355.01 580.47 352.85C580.47 352.87 566.57 342.76 580.47 335.67Z" fill="#ffffff" fill-rule="nonzero" opacity="0.1" stroke="none"/>
<path d="M641.51 350C638.15 365.33 632.72 370.3 629.85 371.9C629.228 372.246 628.651 372.665 628.13 373.15L618.7 369.15C627.97 361.04 629.44 343.38 629.44 343.38L629.44 343.38C634.34 345.16 638.21 346.75 640.26 347.62C641.199 348.005 641.727 349.008 641.51 350Z" fill="#ffffff" fill-rule="nonzero" opacity="0.1" stroke="none"/>
<path d="M580.47 335.67C580.47 335.67 582.79 356.38 600.17 363.33L618.7 369.12C618.7 369.12 627.43 362.75 629.44 343.35C629.44 343.35 597.85 330 580.47 335.67Z" fill="#000000" fill-rule="nonzero" opacity="0.2" stroke="none"/>
<path d="M530.66 428.2L522.56 502.33L703.26 462.95L704.45 380.71L530.66 428.2Z" fill="#cccccc" fill-rule="nonzero" opacity="1" stroke="none"/>
<path d="M679.51 392.87L677.78 422.41L699.78 418.93L700.36 388.24L679.51 392.87Z" fill="#ffffff" fill-rule="nonzero" opacity="1" stroke="none"/>
<path d="M703.26 462.95L770.45 540.56L766.97 462.95L704.45 380.71L703.26 462.95Z" fill="#999999" fill-rule="nonzero" opacity="1" stroke="none"/>
<path d="M770.45 540.56L593.64 577.96L522.56 502.33L703.26 462.95L770.45 540.56Z" fill="#b3b3b3" fill-rule="nonzero" opacity="1" stroke="none"/>
<path d="M730.62 549C730.62 549 730.23 557.67 727.17 557.23L726 550L730.62 549Z" fill="#f7a48b" fill-rule="nonzero" opacity="1" stroke="none"/>
<path d="M747.08 556.64C747.08 556.64 753.08 554.46 754.23 550.99L750.65 544.75L743.84 546.19L747.08 556.64Z" fill="#f7a48b" fill-rule="nonzero" opacity="1" stroke="none"/>
<path d="M769.74 524.87C769.74 524.87 776.91 533.72 776 538.87C776 538.87 771.08 534.58 770.18 534.67L769.74 524.87Z" fill="#f7a48b" fill-rule="nonzero" opacity="1" stroke="none"/>
<path d="M552.66 104.79C552.44 105.62 543.9 135.79 520.66 126.79C516.099 125.224 511.897 122.762 508.3 119.55L508.11 119.39L506.34 117.72C506.34 117.72 507.5 126.99 514.45 131.62C514.45 131.62 495.91 137.41 483.17 129.3C483.17 129.3 476.22 126.99 471.59 117.72C471.59 117.72 465.8 122.35 466.95 132.78C466.95 132.78 470.13 146.09 456.39 158.54L456.39 158.54L450.5 167.17C451.25 177.17 449.43 188.28 448.71 192.11C448.63 192.57 448.52 193.04 448.43 193.51C445.41 187.585 441.321 182.269 436.37 177.83C431.719 173.959 427.93 169.156 425.25 163.73C423.688 160.433 422.404 157.011 421.41 153.5C419.294 146.085 418.419 138.371 418.82 130.67C419.284 121.998 421.215 113.467 424.53 105.44L424.53 105.44C424.97 104.35 425.43 103.27 425.93 102.21C433.45 86 447.43 68.5 471.79 75.02C471.79 75.02 476.21 51.33 508.02 63.54C521.97 68.9001 533.607 78.9672 540.92 92C540.97 92.11 541.03 92.21 541.09 92.32C541.15 92.43 544.56 98.11 552.67 95.79C552.67 95.79 551.52 103.9 548.04 105.06C549.445 106.091 551.384 105.977 552.66 104.79Z" fill="#2f2e41" fill-rule="nonzero" opacity="1" stroke="none"/>
<path d="M448.7 192.16C448.62 192.62 448.51 193.09 448.42 193.56C445.4 187.635 441.311 182.319 436.36 177.88C431.709 174.009 427.92 169.206 425.24 163.78C423.678 160.483 422.394 157.061 421.4 153.55C419.284 146.135 418.409 138.421 418.81 130.72C419.81 132.24 428.49 145.56 438.16 145.56L450.49 167.22C450.49 167.22 451.82 176.18 448.7 192.16Z" fill="#000000" fill-rule="nonzero" opacity="0.2" stroke="none"/>
<path d="M471.8 75.06C468.53 78.7 468.41 85.38 468.41 85.38C444.71 75.14 425.06 104.68 424.54 105.48C424.98 104.39 425.44 103.31 425.94 102.25C433.46 86 447.44 68.54 471.8 75.06Z" fill="#000000" fill-rule="nonzero" opacity="0.2" stroke="none"/>
<path d="M467 132.82C467 132.82 470.18 146.13 456.44 158.58C456.73 158.15 462.31 149.86 460.05 137.45C458.401 126.642 462.325 115.732 470.48 108.45C470.48 108.45 470.48 115.45 471.64 117.72C471.59 117.76 465.8 122.39 467 132.82Z" fill="#000000" fill-rule="nonzero" opacity="0.2" stroke="none"/>
<path d="M514.45 131.66C500.55 131.66 484.67 105.48 484.67 105.48C494.26 98.99 506.34 117.76 506.34 117.76C506.34 117.76 507.5 127 514.45 131.66Z" fill="#000000" fill-rule="nonzero" opacity="0.2" stroke="none"/>
<path d="M436.47 261.8C436.47 261.8 473.27 255.6 478.8 282.25L479.7 314.68C479.7 314.68 480.18 341.51 493.26 349.52C493.26 349.52 483.17 334.26 483.75 311.15L485.26 290.09C485.434 287.748 486.687 285.619 488.65 284.33C493.76 280.96 504.96 276.33 521.4 284.56L526.03 282.25C526.03 282.25 511.13 265.94 483.25 278.73C483.25 278.73 485.63 264.27 476.25 257.62C476.25 257.62 469.56 252.22 462.45 251.62C462.49 251.6 445.37 255.25 436.47 261.8Z" fill="#000000" fill-rule="nonzero" opacity="0.2" stroke="none"/>
<path d="M494.76 297.02C494.76 294.59 496.73 292.62 499.16 292.62C501.59 292.62 503.56 294.59 503.56 297.02C503.56 299.45 501.59 301.42 499.16 301.42C496.73 301.42 494.76 299.45 494.76 297.02Z" fill="#2f2e41" fill-rule="nonzero" opacity="1" stroke="none"/>
<path d="M495.92 314.68C495.92 312.123 497.993 310.05 500.55 310.05C503.107 310.05 505.18 312.123 505.18 314.68C505.18 317.237 503.107 319.31 500.55 319.31C497.993 319.31 495.92 317.237 495.92 314.68Z" fill="#2f2e41" fill-rule="nonzero" opacity="1" stroke="none"/>
<path d="M496.96 330.03C496.96 327.6 498.93 325.63 501.36 325.63C503.79 325.63 505.76 327.6 505.76 330.03C505.76 332.46 503.79 334.43 501.36 334.43C498.93 334.43 496.96 332.46 496.96 330.03Z" fill="#2f2e41" fill-rule="nonzero" opacity="1" stroke="none"/>
<path d="M139.14 462.95L407.88 462.95L407.88 462.95L407.88 622.8L407.88 622.8L139.14 622.8L139.14 622.8L139.14 462.95L139.14 462.95Z" fill="#00c16e" fill-rule="nonzero" opacity="1" stroke="none"/>
<path d="M139.14 462.95L407.88 462.95L407.88 462.95L407.88 622.8L407.88 622.8L139.14 622.8L139.14 622.8L139.14 462.95L139.14 462.95Z" fill="#00c16e" fill-rule="nonzero" opacity="1" stroke="none"/>
<path d="M139.14 462.95L407.88 462.95L407.88 462.95L407.88 622.8L407.88 622.8L139.14 622.8L139.14 622.8L139.14 462.95L139.14 462.95Z" fill="#ffffff" fill-rule="nonzero" opacity="0.3" stroke="none"/>
<path d="M98.6 462.95L139.14 462.95L139.14 462.95L139.14 622.8L139.14 622.8L98.6 622.8L98.6 622.8L98.6 462.95L98.6 462.95Z" fill="#00c16e" fill-rule="nonzero" opacity="1" stroke="none"/>
<path d="M98.6 462.95L139.14 462.95L139.14 462.95L139.14 622.8L139.14 622.8L98.6 622.8L98.6 622.8L98.6 462.95L98.6 462.95Z" fill="#ffffff" fill-rule="nonzero" opacity="0.4" stroke="none"/>
<path d="M366.18 526.66L498.23 526.66L498.23 526.66L498.23 622.8L498.23 622.8L366.18 622.8L366.18 622.8L366.18 526.66L366.18 526.66Z" fill="#b3b3b3" fill-rule="nonzero" opacity="1" stroke="none"/>
<path d="M219.07 526.66L366.18 526.66L366.18 526.66L366.18 622.8L366.18 622.8L219.07 622.8L219.07 622.8L219.07 526.66L219.07 526.66Z" fill="#cccccc" fill-rule="nonzero" opacity="1" stroke="none"/>
<path d="M219.07 526.66L366.18 526.66L366.18 526.66L366.18 557.94L366.18 557.94L219.07 557.94L219.07 557.94L219.07 526.66L219.07 526.66Z" fill="#000000" fill-rule="nonzero" opacity="0.2" stroke="none"/>
<path d="M365.6 526.66L498.23 526.66L498.23 526.66L498.23 557.94L498.23 557.94L365.6 557.94L365.6 557.94L365.6 526.66L365.6 526.66Z" fill="#000000" fill-rule="nonzero" opacity="0.2" stroke="none"/>
<path d="M188.95 462.95L281.62 462.95L281.62 462.95L281.62 511.6L281.62 511.6L188.95 511.6L188.95 511.6L188.95 462.95L188.95 462.95Z" fill="#ffffff" fill-rule="nonzero" opacity="0.3" stroke="none"/>
<path d="M436.899 161.967C433.865 153.656 435.549 145.406 440.659 143.541C445.77 141.676 452.371 146.902 455.405 155.213C458.438 163.525 456.754 171.774 451.644 173.639C446.534 175.505 439.932 170.279 436.899 161.967Z" fill="#f9b499" fill-rule="nonzero" opacity="1" stroke="none"/>
<path d="M596.69 383C596.69 392.27 586.27 390 586.27 390C585.11 401.59 574.68 400.43 574.68 400.43C570.03 404.73 564.6 405.6 559.32 404.74L559.32 404.74C547.52 402.83 536.47 392.33 536.47 392.33L493.47 407.82C489.93 409.08 486.47 410.46 482.99 411.93L482.99 411.93C477.25 414.37 471.61 417.1 466.1 420.06C395.1 458.2 365 457.16 365 457.16C358.35 455.92 353 445.29 349 432.16L349 432.16C347.53 427.41 346.22 422.34 345.06 417.26L345.06 417.26C342.141 404.02 339.904 390.639 338.36 377.17C369.08 360.48 400.52 376.37 400.52 376.37L400.8 384.93L439.16 378.43C509.82 365.69 535.31 354.1 535.31 354.1C542.31 349.47 558.48 348.31 558.48 348.31C570.06 343.68 578.17 352.87 578.17 352.87L574.69 355.26C577.01 361.05 597.86 371.48 597.86 371.48C604.81 369.16 605.97 372.64 605.97 372.64C609.43 384.18 596.69 383 596.69 383Z" fill="#f9b499" fill-rule="nonzero" opacity="1" stroke="none"/>
<path d="M400.79 384.89C348.07 371.89 345.12 416.05 345.05 417.22C342.131 403.98 339.894 390.599 338.35 377.13C370.23 360.44 400.51 376.33 400.51 376.33L400.79 384.89Z" fill="#f7a48b" fill-rule="nonzero" opacity="1" stroke="none"/>
<path d="M466.07 420C395.1 458.2 365 457.16 365 457.16C358.35 455.92 353 445.29 349 432.16C349.36 432.45 365.63 445.47 419.46 435.16C428.57 432.776 437.478 429.676 446.1 425.89C452.569 423.339 459.252 421.367 466.07 420Z" fill="#f7a48b" fill-rule="nonzero" opacity="1" stroke="none"/>
<path d="M559.31 404.7C547.51 402.79 536.46 392.29 536.46 392.29L493.46 407.78C489.92 409.04 486.46 410.42 482.98 411.89L544.74 381.29C545.525 390.99 550.953 399.712 559.31 404.7Z" fill="#f7a48b" fill-rule="nonzero" opacity="1" stroke="none"/>
<path d="M557.31 394.61C563.08 396.67 568.61 399.32 574.68 400.4C568.46 400.94 562.32 398.08 557.31 394.61Z" fill="#f7a48b" fill-rule="nonzero" opacity="1" stroke="none"/>
<path d="M566 386.07C572.61 387.72 579.43 389.88 586.28 389.97C579.4 391.5 572.11 389.23 566 386.07Z" fill="#f7a48b" fill-rule="nonzero" opacity="1" stroke="none"/>
<path d="M580.47 378.39C586.067 379.154 591.528 380.706 596.69 383C591.091 382.233 585.63 380.674 580.47 378.37L580.47 378.39Z" fill="#f7a48b" fill-rule="nonzero" opacity="1" stroke="none"/>
<path d="M641.51 350C640.567 354.723 639.017 359.304 636.9 363.63C633.16 357.04 602.84 336.16 601.9 335.5C611.283 337.374 620.497 340.013 629.45 343.39L629.45 343.39C634.35 345.17 638.22 346.76 640.27 347.63C641.201 348.017 641.722 349.014 641.51 350Z" fill="#000000" fill-rule="nonzero" opacity="0.2" stroke="none"/>
<path d="M768 486.53C768 486.53 777.37 486.12 777.37 491.91C777.37 491.91 779.98 499.75 768.83 505.1L768 486.53Z" fill="#f9b499" fill-rule="nonzero" opacity="1" stroke="none"/>
<path d="M719.48 534.77C719.48 534.77 713.69 534.77 717.16 547.51C717.16 547.51 720.64 559.09 725.27 557.94C725.27 557.94 731.06 559.09 726.43 544.04C726.43 544 725.27 533.61 719.48 534.77Z" fill="#f9b499" fill-rule="nonzero" opacity="1" stroke="none"/>
<path d="M733.53 528.81C731.6 531.1 728.03 537.61 733.38 550.99C733.38 550.99 738.26 560.42 744.51 557.99C744.51 557.99 750.75 556.75 747.28 549.8C747.28 549.8 741.67 539.19 741.58 534.65C741.58 534.65 740.58 528.1 736.08 527.65C735.091 527.592 734.136 528.026 733.53 528.81Z" fill="#f9b499" fill-rule="nonzero" opacity="1" stroke="none"/>
<path d="M745 530.59C744.09 532.39 743.22 535.71 745.09 540.53C746.653 544.547 749.505 547.93 753.2 550.15C755.92 551.78 759.2 552.86 761.39 550.69C761.39 550.69 768.11 547.51 760 539.4C760 539.4 753.7 530.74 748.89 529C747.378 528.466 745.705 529.15 745 530.59Z" fill="#f9b499" fill-rule="nonzero" opacity="1" stroke="none"/>
<path d="M760.83 529.45C760.83 529.45 757.7 532.45 760.83 537.65C760.83 537.65 769.29 547.51 773.92 544.04C773.92 544.04 778.13 542.04 775.09 536.74C774.353 535.491 773.417 534.369 772.32 533.42C769.66 531.05 763.74 526.44 760.83 529.45Z" fill="#f9b499" fill-rule="nonzero" opacity="1" stroke="none"/>
<path d="M214.43 504.65L369.65 504.65L369.65 504.65L369.65 542.88L369.65 542.88L214.43 542.88L214.43 542.88L214.43 504.65L214.43 504.65Z" fill="#cccccc" fill-rule="nonzero" opacity="1" stroke="none"/>
<path d="M279.3 504.65L307.1 504.65L307.1 504.65L307.1 583.42L307.1 583.42L279.3 583.42L279.3 583.42L279.3 504.65L279.3 504.65Z" fill="#000000" fill-rule="nonzero" opacity="0.2" stroke="none"/>
<path d="M369.65 504.65L501.7 504.65L501.7 504.65L501.7 542.88L501.7 542.88L369.65 542.88L369.65 542.88L369.65 504.65L369.65 504.65Z" fill="#999999" fill-rule="nonzero" opacity="1" stroke="none"/>
<path d="M117.761 243.489L120.991 243.489L120.991 243.489L120.991 352.307L120.991 352.307L117.761 352.307L117.761 352.307L117.761 243.489L117.761 243.489Z" fill="#2f2e41" fill-rule="nonzero" opacity="1" stroke="none"/>
<path d="M123.351 243.489L126.581 243.489L126.581 243.489L126.581 352.307L126.581 352.307L123.351 352.307L123.351 352.307L123.351 243.489L123.351 243.489Z" fill="#2f2e41" fill-rule="nonzero" opacity="1" stroke="none"/>
<path d="M136.601 243.489L139.831 243.489L139.831 243.489L139.831 338.517L139.831 338.517L136.601 338.517L136.601 338.517L136.601 243.489L136.601 243.489Z" fill="#2f2e41" fill-rule="nonzero" opacity="1" stroke="none"/>
<path d="M167.201 243.489L170.431 243.489L170.431 243.489L170.431 338.517L170.431 338.517L167.201 338.517L167.201 338.517L167.201 243.489L167.201 243.489Z" fill="#2f2e41" fill-rule="nonzero" opacity="1" stroke="none"/>
<path d="M188.091 243.489L191.321 243.489L191.321 243.489L191.321 338.517L191.321 338.517L188.091 338.517L188.091 338.517L188.091 243.489L188.091 243.489Z" fill="#2f2e41" fill-rule="nonzero" opacity="1" stroke="none"/>
<path d="M210.171 243.489L213.401 243.489L213.401 243.489L213.401 338.517L213.401 338.517L210.171 338.517L210.171 338.517L210.171 243.489L210.171 243.489Z" fill="#2f2e41" fill-rule="nonzero" opacity="1" stroke="none"/>
<path d="M216.051 243.489L219.281 243.489L219.281 243.489L219.281 352.307L219.281 352.307L216.051 352.307L216.051 352.307L216.051 243.489L216.051 243.489Z" fill="#2f2e41" fill-rule="nonzero" opacity="1" stroke="none"/>
<path d="M221.931 243.489L225.161 243.489L225.161 243.489L225.161 352.307L225.161 352.307L221.931 352.307L221.931 352.307L221.931 243.489L221.931 243.489Z" fill="#2f2e41" fill-rule="nonzero" opacity="1" stroke="none"/>
<path d="M243.421 243.489L246.651 243.489L246.651 243.489L246.651 338.517L246.651 338.517L243.421 338.517L243.421 338.517L243.421 243.489L243.421 243.489Z" fill="#2f2e41" fill-rule="nonzero" opacity="1" stroke="none"/>
<path d="M265.791 243.489L269.021 243.489L269.021 243.489L269.021 338.517L269.021 338.517L265.791 338.517L265.791 338.517L265.791 243.489L265.791 243.489Z" fill="#2f2e41" fill-rule="nonzero" opacity="1" stroke="none"/>
<path d="M287.271 243.489L290.501 243.489L290.501 243.489L290.501 338.517L290.501 338.517L287.271 338.517L287.271 338.517L287.271 243.489L287.271 243.489Z" fill="#2f2e41" fill-rule="nonzero" opacity="1" stroke="none"/>
<path d="M293.451 243.489L296.691 243.489L296.691 243.489L296.691 338.517L296.691 338.517L293.451 338.517L293.451 338.517L293.451 243.489L293.451 243.489Z" fill="#2f2e41" fill-rule="nonzero" opacity="1" stroke="none"/>
<path d="M308.751 243.489L311.981 243.489L311.981 243.489L311.981 338.517L311.981 338.517L308.751 338.517L308.751 338.517L308.751 243.489L308.751 243.489Z" fill="#2f2e41" fill-rule="nonzero" opacity="1" stroke="none"/>
<path d="M315.231 243.489L318.461 243.489L318.461 243.489L318.461 352.307L318.461 352.307L315.231 352.307L315.231 352.307L315.231 243.489L315.231 243.489Z" fill="#2f2e41" fill-rule="nonzero" opacity="1" stroke="none"/>
<path d="M321.401 243.489L324.631 243.489L324.631 243.489L324.631 352.307L324.631 352.307L321.401 352.307L321.401 352.307L321.401 243.489L321.401 243.489Z" fill="#2f2e41" fill-rule="nonzero" opacity="1" stroke="none"/>
<path d="M142.181 243.489L148.061 243.489L148.061 243.489L148.061 338.517L148.061 338.517L142.181 338.517L142.181 338.517L142.181 243.489L142.181 243.489Z" fill="#2f2e41" fill-rule="nonzero" opacity="1" stroke="none"/>
<path d="M151.601 243.489L157.481 243.489L157.481 243.489L157.481 338.517L157.481 338.517L151.601 338.517L151.601 338.517L151.601 243.489L151.601 243.489Z" fill="#2f2e41" fill-rule="nonzero" opacity="1" stroke="none"/>
<path d="M179.261 243.489L185.141 243.489L185.141 243.489L185.141 338.517L185.141 338.517L179.261 338.517L179.261 338.517L179.261 243.489L179.261 243.489Z" fill="#2f2e41" fill-rule="nonzero" opacity="1" stroke="none"/>
<path d="M194.571 243.489L200.451 243.489L200.451 243.489L200.451 338.517L200.451 338.517L194.571 338.517L194.571 338.517L194.571 243.489L194.571 243.489Z" fill="#2f2e41" fill-rule="nonzero" opacity="1" stroke="none"/>
<path d="M229.001 243.489L237.531 243.489L237.531 243.489L237.531 338.517L237.531 338.517L229.001 338.517L229.001 338.517L229.001 243.489L229.001 243.489Z" fill="#2f2e41" fill-rule="nonzero" opacity="1" stroke="none"/>
<path d="M250.191 243.489L258.721 243.489L258.721 243.489L258.721 338.517L258.721 338.517L250.191 338.517L250.191 338.517L250.191 243.489L250.191 243.489Z" fill="#2f2e41" fill-rule="nonzero" opacity="1" stroke="none"/>
<path d="M272.261 243.489L280.791 243.489L280.791 243.489L280.791 338.517L280.791 338.517L272.261 338.517L272.261 338.517L272.261 243.489L272.261 243.489Z" fill="#2f2e41" fill-rule="nonzero" opacity="1" stroke="none"/>
<path d="M145.141 368.587C143.993 368.646 142.854 368.361 141.871 367.767C141.037 367.201 140.409 366.38 140.081 365.427C139.685 364.293 139.496 363.098 139.521 361.897C139.503 361.024 139.608 360.152 139.831 359.307C139.999 358.688 140.273 358.103 140.641 357.577C140.951 357.165 141.33 356.81 141.761 356.527C142.147 356.268 142.547 356.031 142.961 355.817C142.004 355.423 141.194 354.742 140.641 353.867C140 352.765 139.691 351.501 139.751 350.227C139.741 349.174 139.921 348.127 140.281 347.137C140.611 346.264 141.219 345.523 142.011 345.027C142.971 344.47 144.072 344.206 145.181 344.267C146.274 344.209 147.36 344.477 148.301 345.037C149.064 345.554 149.654 346.289 149.991 347.147C150.356 348.146 150.536 349.204 150.521 350.267C150.581 351.523 150.279 352.769 149.651 353.857C149.092 354.72 148.287 355.396 147.341 355.797C147.752 356.009 148.149 356.246 148.531 356.507C148.941 356.794 149.3 357.15 149.591 357.557C149.958 358.082 150.239 358.663 150.421 359.277C150.651 360.124 150.759 361 150.741 361.877C150.761 363.078 150.571 364.272 150.181 365.407C149.855 366.356 149.23 367.173 148.401 367.737C147.423 368.339 146.288 368.635 145.141 368.587ZM145.141 366.887C145.83 366.919 146.511 366.726 147.081 366.337C147.637 365.93 148.041 365.35 148.231 364.687C148.71 362.933 148.71 361.082 148.231 359.327C148.065 358.654 147.72 358.039 147.231 357.547C146.653 357.068 145.931 356.797 145.181 356.777C144.411 356.792 143.669 357.063 143.071 357.547C142.536 358.022 142.147 358.64 141.951 359.327C141.708 360.162 141.593 361.028 141.611 361.897C141.583 362.843 141.718 363.787 142.011 364.687C142.393 366.093 143.73 367.021 145.181 366.887L145.141 366.887ZM145.141 354.807C145.844 354.814 146.527 354.573 147.071 354.127C147.555 353.684 147.902 353.112 148.071 352.477C148.268 351.72 148.362 350.94 148.351 350.157C148.429 349.048 148.163 347.941 147.591 346.987C147.002 346.247 146.083 345.849 145.141 345.927C144.19 345.85 143.262 346.246 142.661 346.987C142.073 347.935 141.8 349.045 141.881 350.157C141.862 350.941 141.959 351.723 142.171 352.477C142.345 353.124 142.715 353.7 143.231 354.127C143.775 354.558 144.447 354.797 145.141 354.807Z" fill="#2f2e41" fill-rule="nonzero" opacity="1" stroke="none"/>
<path d="M162.821 368.587C161.786 368.626 160.758 368.417 159.821 367.977C159.026 367.573 158.389 366.915 158.011 366.107C157.579 365.135 157.361 364.081 157.371 363.017L157.371 362.587L159.481 362.587C159.387 363.713 159.642 364.841 160.211 365.817C161.404 366.896 163.15 367.1 164.561 366.327C165.104 365.933 165.495 365.365 165.671 364.717C165.961 363.728 166.09 362.698 166.051 361.667L166.051 357.167C165.665 357.597 165.191 357.938 164.661 358.167C163.889 358.478 163.062 358.627 162.231 358.607C161.149 358.668 160.074 358.407 159.141 357.857C158.345 357.297 157.778 356.471 157.541 355.527C157.197 354.223 157.042 352.876 157.081 351.527C157.05 350.224 157.243 348.925 157.651 347.687C157.985 346.683 158.62 345.807 159.471 345.177C160.446 344.541 161.597 344.226 162.761 344.277C163.887 344.225 165 344.541 165.931 345.177C166.774 345.822 167.391 346.719 167.691 347.737C168.092 349.032 168.281 350.382 168.251 351.737L168.251 361.237C168.275 362.544 168.097 363.846 167.721 365.097C167.439 366.123 166.849 367.037 166.031 367.717C165.094 368.372 163.959 368.68 162.821 368.587ZM162.741 356.897C163.472 356.931 164.2 356.773 164.851 356.437C165.315 356.202 165.735 355.887 166.091 355.507L166.091 351.427C166.113 350.36 165.999 349.295 165.751 348.257C165.501 346.829 164.193 345.835 162.751 345.977C162.066 345.948 161.39 346.137 160.821 346.517C160.262 346.928 159.854 347.511 159.661 348.177C159.381 349.094 159.252 350.05 159.281 351.007C159.259 352.102 159.332 353.196 159.501 354.277C159.583 355.015 159.919 355.7 160.451 356.217C161.094 356.707 161.893 356.949 162.701 356.897L162.741 356.897Z" fill="#2f2e41" fill-rule="nonzero" opacity="1" stroke="none"/>
<path d="M181.821 368.327L181.821 361.327L174.641 361.327L174.641 359.127L181.371 344.497L183.901 344.497L183.901 359.427L186.641 359.427L186.641 361.367L183.901 361.367L183.901 368.367L181.821 368.327ZM176.821 359.397L181.821 359.397L181.821 347.297L176.821 359.397Z" fill="#2f2e41" fill-rule="nonzero" opacity="1" stroke="none"/>
<path d="M193.531 368.327L198.191 346.147L190.971 346.147L190.971 344.407L200.401 344.407L200.401 345.497L195.621 368.357L193.531 368.327Z" fill="#2f2e41" fill-rule="nonzero" opacity="1" stroke="none"/>
<path d="M240.871 368.587C239.682 368.656 238.503 368.336 237.511 367.677C236.677 367.048 236.062 366.174 235.751 365.177C235.381 364.007 235.202 362.785 235.221 361.557L235.221 351.177C235.198 349.945 235.384 348.718 235.771 347.547C236.092 346.556 236.723 345.694 237.571 345.087C238.551 344.456 239.706 344.148 240.871 344.207C242.055 344.144 243.229 344.452 244.231 345.087C245.07 345.698 245.693 346.559 246.011 347.547C246.398 348.718 246.584 349.945 246.561 351.177L246.561 361.557C246.58 362.794 246.401 364.027 246.031 365.207C245.724 366.203 245.103 367.073 244.261 367.687C243.255 368.341 242.068 368.656 240.871 368.587ZM240.871 366.887C241.638 366.933 242.393 366.682 242.981 366.187C243.504 365.685 243.872 365.043 244.041 364.337C244.249 363.483 244.353 362.607 244.351 361.727L244.351 351.047C244.358 350.168 244.254 349.291 244.041 348.437C243.872 347.732 243.504 347.09 242.981 346.587C242.38 346.118 241.632 345.877 240.871 345.907C240.108 345.866 239.356 346.108 238.761 346.587C238.231 347.084 237.861 347.729 237.701 348.437C237.478 349.289 237.373 350.167 237.391 351.047L237.391 361.727C237.379 362.607 237.483 363.485 237.701 364.337C237.861 365.046 238.231 365.69 238.761 366.187C239.348 366.682 240.104 366.933 240.871 366.887Z" fill="#2f2e41" fill-rule="nonzero" opacity="1" stroke="none"/>
<path d="M259.051 368.587C257.862 368.657 256.682 368.338 255.691 367.677C254.854 367.051 254.238 366.176 253.931 365.177C253.551 364.009 253.372 362.785 253.401 361.557L253.401 351.177C253.379 349.946 253.562 348.719 253.941 347.547C254.262 346.558 254.889 345.697 255.731 345.087C257.804 343.918 260.337 343.918 262.411 345.087C263.247 345.698 263.867 346.56 264.181 347.547C264.568 348.718 264.754 349.945 264.731 351.177L264.731 361.557C264.75 362.794 264.571 364.027 264.201 365.207C263.892 366.2 263.276 367.069 262.441 367.687C261.434 368.338 260.247 368.653 259.051 368.587ZM259.051 366.887C259.817 366.927 260.57 366.677 261.161 366.187C261.684 365.685 262.052 365.043 262.221 364.337C262.438 363.485 262.543 362.607 262.531 361.727L262.531 351.047C262.543 350.167 262.438 349.29 262.221 348.437C262.056 347.73 261.687 347.087 261.161 346.587C259.895 345.698 258.207 345.698 256.941 346.587C256.414 347.087 256.045 347.73 255.881 348.437C255.667 349.291 255.563 350.168 255.571 351.047L255.571 361.727C255.568 362.607 255.672 363.483 255.881 364.337C256.041 365.046 256.411 365.69 256.941 366.187C257.525 366.688 258.283 366.939 259.051 366.887Z" fill="#2f2e41" fill-rule="nonzero" opacity="1" stroke="none"/>
<path d="M277.211 368.587C276.025 368.656 274.849 368.336 273.861 367.677C273.024 367.05 272.405 366.175 272.091 365.177C271.73 364.005 271.551 362.784 271.561 361.557L271.561 351.177C271.543 349.945 271.729 348.719 272.111 347.547C272.432 346.556 273.063 345.694 273.911 345.087C274.892 344.457 276.046 344.149 277.211 344.207C278.395 344.143 279.57 344.45 280.571 345.087C281.413 345.697 282.04 346.558 282.361 347.547C282.738 348.72 282.924 349.946 282.911 351.177L282.911 361.557C282.926 362.795 282.744 364.027 282.371 365.207C282.064 366.203 281.443 367.073 280.601 367.687C279.595 368.341 278.408 368.656 277.211 368.587ZM277.211 366.887C277.98 366.928 278.737 366.678 279.331 366.187C279.851 365.684 280.216 365.042 280.381 364.337C280.594 363.484 280.698 362.607 280.691 361.727L280.691 351.047C280.698 350.168 280.594 349.291 280.381 348.437C280.216 347.733 279.851 347.09 279.331 346.587C278.727 346.117 277.976 345.876 277.211 345.907C276.448 345.867 275.697 346.109 275.101 346.587C274.592 347.092 274.244 347.736 274.101 348.437C273.874 349.288 273.767 350.167 273.781 351.047L273.781 361.727C273.772 362.608 273.88 363.485 274.101 364.337C274.244 365.039 274.592 365.683 275.101 366.187C275.688 366.682 276.444 366.933 277.211 366.887Z" fill="#2f2e41" fill-rule="nonzero" opacity="1" stroke="none"/>
<path d="M290.821 368.327L295.461 346.197L288.251 346.197L288.251 344.497L297.671 344.497L297.671 345.497L292.911 368.307L290.821 368.327Z" fill="#2f2e41" fill-rule="nonzero" opacity="1" stroke="none"/>
</g>
</svg>
